<svg width="24" height="24" viewBox="0 0 24 24" fill="none" xmlns="http://www.w3.org/2000/svg">
<path d="M16.5 1.09961C16.9971 1.09961 17.4004 1.50294 17.4004 2V2.59961H19C20.6016 2.59961 21.9004 3.89837 21.9004 5.5V19.5C21.9004 21.1016 20.6016 22.4004 19 22.4004H5C3.39837 22.4004 2.09961 21.1016 2.09961 19.5V5.5C2.09961 3.89837 3.39837 2.59961 5 2.59961H6.59961V2C6.59961 1.50294 7.00294 1.09961 7.5 1.09961C7.99706 1.09961 8.40039 1.50294 8.40039 2V2.59961H15.5996V2C15.5996 1.50294 16.0029 1.09961 16.5 1.09961ZM3.90039 19.5C3.90039 20.1075 4.39249 20.5996 5 20.5996H19C19.6075 20.5996 20.0996 20.1075 20.0996 19.5V9.40039H3.90039V19.5ZM7.5 15.5996C7.99706 15.5996 8.40039 16.0029 8.40039 16.5C8.40039 16.9971 7.99706 17.4004 7.5 17.4004H6.5C6.00294 17.4004 5.59961 16.9971 5.59961 16.5C5.59961 16.0029 6.00294 15.5996 6.5 15.5996H7.5ZM12.5 15.5996C12.9971 15.5996 13.4004 16.0029 13.4004 16.5C13.4004 16.9971 12.9971 17.4004 12.5 17.4004H11.5C11.0029 17.4004 10.5996 16.9971 10.5996 16.5C10.5996 16.0029 11.0029 15.5996 11.5 15.5996H12.5ZM17.5 15.5996C17.9971 15.5996 18.4004 16.0029 18.4004 16.5C18.4004 16.9971 17.9971 17.4004 17.5 17.4004H16.5C16.0029 17.4004 15.5996 16.9971 15.5996 16.5C15.5996 16.0029 16.0029 15.5996 16.5 15.5996H17.5ZM7.5 11.5996C7.99706 11.5996 8.40039 12.0029 8.40039 12.5C8.40039 12.9971 7.99706 13.4004 7.5 13.4004H6.5C6.00294 13.4004 5.59961 12.9971 5.59961 12.5C5.59961 12.0029 6.00294 11.5996 6.5 11.5996H7.5ZM12.5 11.5996C12.9971 11.5996 13.4004 12.0029 13.4004 12.5C13.4004 12.9971 12.9971 13.4004 12.5 13.4004H11.5C11.0029 13.4004 10.5996 12.9971 10.5996 12.5C10.5996 12.0029 11.0029 11.5996 11.5 11.5996H12.5ZM17.5 11.5996C17.9971 11.5996 18.4004 12.0029 18.4004 12.5C18.4004 12.9971 17.9971 13.4004 17.5 13.4004H16.5C16.0029 13.4004 15.5996 12.9971 15.5996 12.5C15.5996 12.0029 16.0029 11.5996 16.5 11.5996H17.5ZM5 4.40039C4.39249 4.40039 3.90039 4.89249 3.90039 5.5V7.59961H20.0996V5.5C20.0996 4.89249 19.6075 4.40039 19 4.40039H17.4004V5C17.4004 5.49706 16.9971 5.90039 16.5 5.90039C16.0029 5.90039 15.5996 5.49706 15.5996 5V4.40039H8.40039V5C8.40039 5.49706 7.99706 5.90039 7.5 5.90039C7.00294 5.90039 6.59961 5.49706 6.59961 5V4.40039H5Z" fill="#929292"/>
</svg>
