<svg width="24" height="24" viewBox="0 0 24 24" fill="none" xmlns="http://www.w3.org/2000/svg">
<path d="M18.0996 6.90039H5.90039V20C5.90039 20.2917 6.01637 20.5711 6.22266 20.7773C6.42895 20.9836 6.70826 21.0996 7 21.0996H17C17.2917 21.0996 17.5711 20.9836 17.7773 20.7773C17.9836 20.5711 18.0996 20.2917 18.0996 20V6.90039ZM9.09961 17V11C9.09961 10.5029 9.50294 10.0996 10 10.0996C10.4971 10.0996 10.9004 10.5029 10.9004 11V17C10.9004 17.4971 10.4971 17.9004 10 17.9004C9.50294 17.9004 9.09961 17.4971 9.09961 17ZM13.0996 17V11C13.0996 10.5029 13.5029 10.0996 14 10.0996C14.4971 10.0996 14.9004 10.5029 14.9004 11V17C14.9004 17.4971 14.4971 17.9004 14 17.9004C13.5029 17.9004 13.0996 17.4971 13.0996 17ZM15.0996 4C15.0996 3.70826 14.9836 3.42895 14.7773 3.22266C14.5711 3.01637 14.2917 2.90039 14 2.90039H10C9.70826 2.90039 9.42895 3.01637 9.22266 3.22266C9.01637 3.42895 8.90039 3.70826 8.90039 4V5.09961H15.0996V4ZM16.9004 5.09961H21C21.4971 5.09961 21.9004 5.50294 21.9004 6C21.9004 6.49706 21.4971 6.90039 21 6.90039H19.9004V20C19.9004 20.7691 19.5946 21.5069 19.0508 22.0508C18.5069 22.5946 17.7691 22.9004 17 22.9004H7C6.23087 22.9004 5.49307 22.5946 4.94922 22.0508C4.40536 21.5069 4.09961 20.7691 4.09961 20V6.90039H3C2.50294 6.90039 2.09961 6.49706 2.09961 6C2.09961 5.50294 2.50294 5.09961 3 5.09961H7.09961V4C7.09961 3.23087 7.40536 2.49307 7.94922 1.94922C8.49307 1.40536 9.23087 1.09961 10 1.09961H14C14.7691 1.09961 15.5069 1.40536 16.0508 1.94922C16.5946 2.49307 16.9004 3.23087 16.9004 4V5.09961Z" fill="#929292"/>
</svg>
