<svg width="24" height="24" viewBox="0 0 24 24" fill="none" xmlns="http://www.w3.org/2000/svg">
<path d="M12.0013 5.10156C16.1394 5.10157 19.739 7.40109 21.5902 10.7861C22.0046 11.5442 22.0047 12.4607 21.5902 13.2188C19.7389 16.6035 16.1392 18.9023 12.0013 18.9023C7.8632 18.9023 4.26362 16.6028 2.41244 13.2178C1.99799 12.4597 1.99789 11.5432 2.41244 10.7852C4.26371 7.4004 7.8634 5.10156 12.0013 5.10156ZM12.0013 6.90234C8.54614 6.90234 5.53917 8.81955 3.99154 11.6494C3.87134 11.8693 3.8713 12.1346 3.99154 12.3545C5.53914 15.1844 8.5461 17.1016 12.0013 17.1016C15.4565 17.1016 18.4634 15.1844 20.0111 12.3545C20.1313 12.1346 20.1313 11.8693 20.0111 11.6494C18.4635 8.81949 15.4565 6.90235 12.0013 6.90234Z" fill="#929292"/>
<path d="M14.1016 12.002C14.1016 10.8422 13.1618 9.90234 12.002 9.90234C10.8422 9.90234 9.90234 10.8422 9.90234 12.002C9.90234 13.1618 10.8422 14.1016 12.002 14.1016C13.1618 14.1016 14.1016 13.1618 14.1016 12.002ZM15.9023 12.002C15.9023 14.1559 14.1559 15.9023 12.002 15.9023C9.84804 15.9023 8.10156 14.1559 8.10156 12.002C8.10156 9.84804 9.84804 8.10156 12.002 8.10156C14.1559 8.10156 15.9023 9.84804 15.9023 12.002Z" fill="#929292"/>
</svg>
