<svg width="36" height="36" viewBox="0 0 36 36" fill="none" xmlns="http://www.w3.org/2000/svg">
<rect width="36" height="36" rx="18" fill="#009EE2"/>
<path d="M19.5701 10.0149V8H16.4556V10.0149H12.1875V12.3774H16.4556H19.5701H23.8381V10.0149H19.5701Z" fill="white"/>
<path d="M17.9782 13.2188C15.6949 13.2188 13.8438 15.0018 13.8438 17.2011C13.8438 19.4003 15.6949 21.1834 17.9782 21.1834C20.2615 21.1834 22.1126 19.4003 22.1126 17.2011C22.1126 15.0018 20.2615 13.2188 17.9782 13.2188ZM17.9782 19.2011C16.8314 19.2011 15.9019 18.3056 15.9019 17.2011C15.9019 16.0965 16.8316 15.201 17.9782 15.201C19.1247 15.201 20.0547 16.0965 20.0547 17.2011C20.0547 18.3056 19.1249 19.2011 17.9782 19.2011Z" fill="white"/>
<path d="M13.8448 25.8152V23.0117H11.5781V25.8152V27.9983H13.8448H24.4209V25.8152H13.8448Z" fill="white"/>
<path d="M18.0227 24.9961C18.8033 24.9961 19.4361 24.3866 19.4361 23.6348C19.4361 22.8829 18.8033 22.2734 18.0227 22.2734C17.2422 22.2734 16.6094 22.8829 16.6094 23.6348C16.6094 24.3866 17.2422 24.9961 18.0227 24.9961Z" fill="white"/>
</svg>
