<svg width="36" height="36" viewBox="0 0 36 36" fill="none" xmlns="http://www.w3.org/2000/svg">
<rect width="36" height="36" rx="18" fill="#C43E1C"/>
<path d="M18.2111 10.0156C19.7475 9.90792 21.2714 10.3615 22.5124 11.2958C23.0101 11.7535 23.4015 12.3196 23.6578 12.9525C23.9142 13.5855 24.029 14.2692 23.9938 14.9535C24.0242 15.9338 23.7732 16.9017 23.2719 17.7372C22.7707 18.5727 22.0412 19.2391 21.1738 19.6538C20.1829 20.1169 19.1037 20.348 18.0147 20.3305H15.052V26H12V10.0156H18.2111ZM15.0341 17.9346H17.6756C18.5061 18.0029 19.332 17.7555 19.9959 17.2396C20.267 16.9716 20.4777 16.6462 20.6133 16.2861C20.749 15.926 20.8062 15.5399 20.7812 15.1547C20.7812 13.3258 19.7817 12.5028 17.7649 12.5028H15.052L15.0341 17.9346Z" fill="white"/>
</svg>
