<svg width="36" height="36" viewBox="0 0 36 36" fill="none" xmlns="http://www.w3.org/2000/svg">
<rect width="36" height="36" rx="18" fill="#EF5151"/>
<path d="M10.8366 27.29C10.4153 27.29 10.0078 27.1279 9.63492 26.8106C9.00647 26.2747 8.95812 25.6824 9.02028 25.2805C9.32415 23.4683 12.6253 21.8113 14.5451 20.9934C15.588 18.328 16.4927 15.1902 17.052 12.8352C15.9333 10.3884 15.5396 8.66087 15.8849 7.68075C16.0576 7.19422 16.4098 6.87692 16.907 6.7641L16.9761 6.75L17.0451 6.75705C17.1004 6.7641 17.5907 6.84166 17.9913 7.39166C18.5092 8.11087 18.6266 9.27432 18.3366 10.8538C18.2537 11.3051 18.1156 11.9538 17.936 12.7294C18.9581 14.9011 20.3946 17.2985 21.5686 18.9626C22.5493 18.8216 23.4816 18.7722 24.2689 18.8568C25.7399 19.012 26.0507 19.6677 26.1059 20.0485C26.1888 20.6055 25.7882 21.1837 25.1045 21.4799C24.1584 21.8888 22.6114 21.7831 21.3545 20.119C21.2993 20.0485 21.244 19.9709 21.1888 19.8934C19.5728 20.1684 17.6943 20.6902 15.7882 21.4164C15.588 21.494 15.3946 21.5715 15.2012 21.6491C13.9098 24.8785 12.646 26.733 11.4374 27.1772C11.244 27.2548 11.0369 27.29 10.8366 27.29ZM14.0824 22.1356C11.3407 23.3978 9.98022 24.6459 9.85591 25.4285C9.82829 25.5978 9.82829 25.8587 10.1805 26.1548C10.5051 26.4298 10.8159 26.5003 11.1612 26.3734C12.1211 26.0208 13.1432 24.3286 14.0824 22.1356ZM22.1625 19.7594C23.0949 20.8805 24.1446 20.9722 24.7799 20.6901C25.1114 20.5491 25.2979 20.3094 25.2772 20.1754C25.2565 20.0344 24.9457 19.7947 24.186 19.7171C23.6197 19.6607 22.936 19.6748 22.1625 19.7594ZM17.6322 14.0197C17.2109 15.6768 16.6377 17.6723 15.9678 19.6043C15.8504 19.9357 15.7399 20.253 15.6225 20.5632C17.1211 19.9991 18.9305 19.4491 20.6501 19.1177C19.7247 17.771 18.5852 15.9024 17.6322 14.0197ZM17.0106 7.63845C16.8518 7.69486 16.7482 7.80062 16.686 7.98395C16.4443 8.66086 16.762 9.93713 17.3766 11.4461C17.4319 11.1781 17.4802 10.9313 17.5217 10.7057C17.8393 8.94996 17.5355 8.19549 17.3214 7.90639C17.204 7.74421 17.0797 7.66665 17.0106 7.63845Z" fill="white"/>
</svg>
