<svg width="24" height="24" viewBox="0 0 24 24" fill="none" xmlns="http://www.w3.org/2000/svg">
<path fill-rule="evenodd" clip-rule="evenodd" d="M4.87485 6.61677C4.87485 7.01025 5.19383 7.32924 5.58732 7.32924H18.4118C18.8053 7.32924 19.1243 7.01025 19.1243 6.61677C19.1243 6.22328 18.8053 5.9043 18.4118 5.9043H5.58732C5.19383 5.9043 4.87485 6.22328 4.87485 6.61677Z" fill="#929292"/>
<path fill-rule="evenodd" clip-rule="evenodd" d="M4.87485 11.9996C4.87485 12.3931 5.19383 12.7121 5.58732 12.7121H18.4118C18.8053 12.7121 19.1243 12.3931 19.1243 11.9996C19.1243 11.6061 18.8053 11.2871 18.4118 11.2871H5.58732C5.19383 11.2871 4.87485 11.6061 4.87485 11.9996Z" fill="#929292"/>
<path fill-rule="evenodd" clip-rule="evenodd" d="M4.87485 17.3834C4.87485 17.7769 5.19383 18.0958 5.58732 18.0958H18.4118C18.8053 18.0958 19.1243 17.7769 19.1243 17.3834C19.1243 16.9899 18.8053 16.6709 18.4118 16.6709H5.58732C5.19383 16.6709 4.87485 16.9899 4.87485 17.3834Z" fill="#929292"/>
</svg>
