<svg width="24" height="24" viewBox="0 0 24 24" fill="none" xmlns="http://www.w3.org/2000/svg">
<path d="M11.9988 1.97266C16.0795 1.97266 19.3873 5.28066 19.3875 9.36133V17.8057H17.5876V9.36133C17.5875 6.27477 15.0854 3.77246 11.9988 3.77246C8.91229 3.77258 6.41003 6.27484 6.40991 9.36133V17.8057H4.61011V9.36133C4.61022 5.28073 7.91818 1.97277 11.9988 1.97266Z" fill="#929292"/>
<path d="M11.999 22.0283C9.37567 22.0283 7.24902 19.9017 7.24902 17.2783L7.24902 16.751L9.04883 16.751L9.04883 17.2783C9.04883 18.9076 10.3698 20.2285 11.999 20.2285C13.6283 20.2285 14.9492 18.9076 14.9492 17.2783L14.9492 16.751L16.749 16.751L16.749 17.2783C16.749 19.9017 14.6224 22.0283 11.999 22.0283Z" fill="#929292"/>
<path d="M20.5986 16.5342C21.0956 16.5342 21.4988 16.9367 21.499 17.4336C21.499 17.9306 21.0957 18.334 20.5986 18.334H3.39941C2.90236 18.334 2.49902 17.9306 2.49902 17.4336C2.49923 16.9367 2.90249 16.5342 3.39941 16.5342H20.5986Z" fill="#929292"/>
</svg>
