<svg width="24" height="24" viewBox="0 0 24 24" fill="none" xmlns="http://www.w3.org/2000/svg">
<path d="M11.0498 19V12.9502H5C4.47533 12.9502 4.0498 12.5247 4.0498 12C4.0498 11.4753 4.47533 11.0498 5 11.0498H11.0498V5C11.0498 4.47533 11.4753 4.0498 12 4.0498C12.5247 4.0498 12.9502 4.47533 12.9502 5V11.0498H19C19.5247 11.0498 19.9502 11.4753 19.9502 12C19.9502 12.5247 19.5247 12.9502 19 12.9502H12.9502V19C12.9502 19.5247 12.5247 19.9502 12 19.9502C11.4753 19.9502 11.0498 19.5247 11.0498 19Z" fill="#929292"/>
</svg>
