<svg width="24" height="24" viewBox="0 0 24 24" fill="none" xmlns="http://www.w3.org/2000/svg">
<path d="M12.0496 22C9.24346 22 6.86671 21.0314 4.91938 19.0943C2.97182 17.1572 1.99805 14.7931 1.99805 12.002C1.99805 9.21089 2.97182 6.84611 4.91938 4.90767C6.86671 2.96922 9.24346 2 12.0496 2C13.6166 2 15.0994 2.34656 16.4981 3.03967C17.8967 3.733 19.0599 4.71122 19.9877 5.97433V3C19.9877 2.71667 20.0841 2.47922 20.2769 2.28767C20.4696 2.09589 20.7084 2 20.9932 2C21.2782 2 21.5169 2.09589 21.7092 2.28767C21.9018 2.47922 21.998 2.71667 21.998 3V8.94867C21.998 9.29022 21.882 9.57644 21.6499 9.80733C21.4176 10.0382 21.1299 10.1537 20.7868 10.1537H14.8075C14.5227 10.1537 14.2839 10.0579 14.0911 9.86633C13.8986 9.67456 13.8023 9.43689 13.8023 9.15333C13.8023 8.87 13.8986 8.63255 14.0911 8.441C14.2839 8.24967 14.5227 8.154 14.8075 8.154H19.0961C18.3899 6.86667 17.4104 5.85255 16.1577 5.11167C14.9053 4.37055 13.5359 4 12.0496 4C9.81596 4 7.91732 4.77778 6.35374 6.33333C4.79016 7.88889 4.00837 9.77778 4.00837 12C4.00837 14.2222 4.79016 16.1111 6.35374 17.6667C7.91732 19.2222 9.81596 20 12.0496 20C13.6072 20 15.0331 19.5931 16.3273 18.7793C17.6215 17.9658 18.6019 16.8803 19.2687 15.523C19.3958 15.2803 19.5826 15.1107 19.8292 15.014C20.0758 14.9176 20.3271 14.912 20.5831 14.9973C20.8563 15.0829 21.0475 15.2607 21.1567 15.5307C21.2657 15.8009 21.2567 16.0573 21.1296 16.3C20.2995 18.0264 19.0744 19.408 17.4541 20.4447C15.8337 21.4816 14.0323 22 12.0496 22Z" fill="#929292"/>
</svg>
