<svg width="24" height="24" viewBox="0 0 24 24" fill="none" xmlns="http://www.w3.org/2000/svg">
<path fill-rule="evenodd" clip-rule="evenodd" d="M19.7373 18.5036L16.0294 14.8201C16.377 14.3597 16.7246 13.7842 16.9564 13.0935C17.304 12.2878 17.4199 11.482 17.4199 10.6763C17.4199 7.22302 14.7548 4.34532 11.2785 4C11.0468 4 10.9309 4 10.6992 4C7.45471 4 4.67374 6.30216 4.09438 9.52518C3.51501 12.8633 5.60073 16.3165 8.96107 17.2374C9.54044 17.3525 10.1198 17.4676 10.6992 17.4676C12.2055 17.4676 13.7119 17.0072 14.8706 16.0863L18.5786 19.7698C18.6945 19.8849 18.9262 20 19.158 20C19.3897 20 19.6215 19.8849 19.7373 19.7698C20.085 19.4245 20.085 18.8489 19.7373 18.5036ZM15.6817 10.7914C15.6817 11.3669 15.5659 11.9424 15.3341 12.518C14.6389 14.4748 12.669 15.741 10.5833 15.741C10.1198 15.741 9.65631 15.6259 9.30869 15.5108C6.87535 14.8201 5.25311 12.2878 5.71661 9.8705C6.1801 7.56835 8.26583 5.84173 10.5833 5.84173C10.6992 5.84173 10.9309 5.84173 11.0468 5.84173C13.7119 6.07194 15.6817 8.25899 15.6817 10.7914Z" fill="#929292"/>
</svg>
