<svg width="24" height="24" viewBox="0 0 24 24" fill="none" xmlns="http://www.w3.org/2000/svg">
<path d="M17.5 1.09961C19.3778 1.09961 20.9004 2.62223 20.9004 4.5C20.9004 6.37777 19.3778 7.90039 17.5 7.90039C16.586 7.90039 15.7566 7.53905 15.1455 6.95215L8.77637 10.5918C8.85638 10.881 8.90039 11.1853 8.90039 11.5C8.90039 12.0635 8.76223 12.5945 8.51953 13.0625L15.1514 17.042C15.7619 16.4585 16.5889 16.0996 17.5 16.0996C19.3778 16.0996 20.9004 17.6222 20.9004 19.5C20.9004 21.3778 19.3778 22.9004 17.5 22.9004C15.6222 22.9004 14.0996 21.3778 14.0996 19.5C14.0996 19.183 14.1434 18.8761 14.2246 18.585L7.2627 14.4072C6.74855 14.7197 6.1455 14.9004 5.5 14.9004C3.62223 14.9004 2.09961 13.3778 2.09961 11.5C2.09961 9.62223 3.62223 8.09961 5.5 8.09961C6.41329 8.09961 7.24159 8.46082 7.85254 9.04688L14.2227 5.40723C14.1428 5.11836 14.0996 4.81423 14.0996 4.5C14.0996 2.62223 15.6222 1.09961 17.5 1.09961ZM17.5 17.9004C16.6163 17.9004 15.9004 18.6163 15.9004 19.5C15.9004 20.3837 16.6163 21.0996 17.5 21.0996C18.3837 21.0996 19.0996 20.3837 19.0996 19.5C19.0996 18.6163 18.3837 17.9004 17.5 17.9004ZM5.5 9.90039C4.61634 9.90039 3.90039 10.6163 3.90039 11.5C3.90039 12.3837 4.61634 13.0996 5.5 13.0996C6.38366 13.0996 7.09961 12.3837 7.09961 11.5C7.09961 10.6163 6.38366 9.90039 5.5 9.90039ZM17.5 2.90039C16.6163 2.90039 15.9004 3.61634 15.9004 4.5C15.9004 5.38366 16.6163 6.09961 17.5 6.09961C18.3837 6.09961 19.0996 5.38366 19.0996 4.5C19.0996 3.61634 18.3837 2.90039 17.5 2.90039Z" fill="#929292"/>
</svg>
