<svg width="24" height="24" viewBox="0 0 24 24" fill="none" xmlns="http://www.w3.org/2000/svg">
<path d="M22.0748 9.80153L22.0158 9.59753L21.9388 9.39953C21.5198 8.45353 20.5908 8.14153 20.0268 8.00853C19.3838 7.85653 18.5238 7.78353 17.6008 7.70053L17.3858 7.68053C16.7608 7.62453 16.4038 7.59153 16.1438 7.54053C16.0268 7.51753 15.9658 7.49753 15.9358 7.48553C15.9218 7.48053 15.9148 7.47653 15.9128 7.47553C15.9118 7.47553 15.9118 7.47353 15.9108 7.47353C15.9098 7.47353 15.9088 7.47353 15.9078 7.47153C15.9058 7.46953 15.9008 7.46353 15.8918 7.45253C15.8718 7.42753 15.8348 7.37453 15.7798 7.26853C15.6568 7.03353 15.5208 6.70253 15.2878 6.12053L15.2518 6.02853C14.8768 5.09453 14.5378 4.23853 14.1908 3.63453C13.8988 3.12453 13.3068 2.26153 12.2258 2.15553L12.0028 2.14453C10.7788 2.14453 10.1258 3.09053 9.81475 3.63353C9.46875 4.23753 9.12875 5.09353 8.75375 6.02753L8.71775 6.11953C8.48475 6.70153 8.34875 7.03253 8.22575 7.26753C8.17075 7.37253 8.13275 7.42553 8.11375 7.45153C8.10475 7.46253 8.09975 7.46853 8.09775 7.47053L8.09575 7.47253C8.09575 7.47253 8.09475 7.47353 8.09275 7.47453C8.09075 7.47553 8.08375 7.47853 8.07075 7.48453C8.04075 7.49653 7.97975 7.51653 7.86275 7.53953C7.60175 7.59053 7.24575 7.62353 6.62075 7.67953L6.40575 7.69953C5.48375 7.78253 4.62275 7.85553 3.97975 8.00753C3.41575 8.14053 2.48675 8.45253 2.06775 9.39853L1.99075 9.59653C1.62075 10.6985 2.22175 11.5875 2.61575 12.0645C3.03575 12.5735 3.67775 13.1525 4.36275 13.7755L4.84475 14.2135C5.22875 14.5635 5.44675 14.7635 5.59675 14.9255C5.68775 15.0235 5.71775 15.0715 5.72475 15.0845C5.73275 15.1045 5.73875 15.1255 5.74375 15.1465C5.74575 15.1585 5.74975 15.2115 5.73075 15.3515C5.70175 15.5705 5.63875 15.8585 5.52675 16.3665L5.45975 16.6675C5.27075 17.5185 5.10075 18.2775 5.03375 18.8675C4.97875 19.3555 4.90575 20.3085 5.56075 21.0385C5.88175 21.3955 6.29975 21.6535 6.76275 21.7795C7.70975 22.0375 8.52775 21.5465 8.93975 21.2775C9.43675 20.9535 10.0398 20.4595 10.7148 19.9085C11.1988 19.5135 11.4828 19.2845 11.7078 19.1345C11.8368 19.0485 11.9008 19.0205 11.9228 19.0125C11.9748 19.0045 12.0278 19.0045 12.0798 19.0125C12.1008 19.0205 12.1648 19.0475 12.2948 19.1345C12.5198 19.2855 12.8038 19.5145 13.2878 19.9085C13.9638 20.4595 14.5658 20.9535 15.0628 21.2775C15.4748 21.5465 16.2928 22.0375 17.2398 21.7795C17.7038 21.6525 18.1208 21.3955 18.4418 21.0385C19.0978 20.3085 19.0248 19.3565 18.9688 18.8675C18.9018 18.2775 18.7318 17.5185 18.5428 16.6675L18.4758 16.3665C18.3628 15.8595 18.3008 15.5705 18.2718 15.3515C18.2538 15.2185 18.2568 15.1625 18.2588 15.1475C18.2638 15.1265 18.2708 15.1055 18.2788 15.0855C18.2858 15.0715 18.3158 15.0245 18.4068 14.9265C18.5568 14.7645 18.7748 14.5645 19.1598 14.2145L19.6418 13.7765C20.3268 13.1535 20.9688 12.5745 21.3888 12.0655C21.7578 11.6185 22.3098 10.8085 22.0728 9.80153H22.0748Z" fill="#929292"/>
</svg>
