<svg width="24" height="24" viewBox="0 0 24 24" fill="none" xmlns="http://www.w3.org/2000/svg">
<path d="M19.9951 6.42365L14.9822 1.5H4.80881C4.36228 1.5 4 1.85553 4 2.29374V16.3784H19.9951V6.42365Z" fill="#EFF3F5"/>
<path d="M14.9844 5.62982C14.9844 6.06802 15.3466 6.42354 15.7932 6.42354H20.0014L14.9844 1.5V5.62982Z" fill="#DBDFE0"/>
<path d="M4.00781 16.375V21.7079C4.00781 22.1461 4.37009 22.5017 4.81663 22.5017H19.1941C19.6406 22.5017 20.0029 22.1461 20.0029 21.7079V16.375H4.00781Z" fill="#FF432F"/>
<path d="M9.06673 13.8862C8.88297 13.8862 8.70524 13.8168 8.54257 13.6809C8.26845 13.4515 8.24736 13.198 8.27447 13.026C8.40702 12.2502 9.84694 11.5409 10.6844 11.1908C11.1393 10.0499 11.5339 8.70671 11.7779 7.69858C11.2899 6.65122 11.1182 5.91172 11.2688 5.49217C11.3441 5.28391 11.4977 5.14808 11.7146 5.09979L11.7447 5.09375L11.7749 5.09677C11.799 5.09979 12.0128 5.13299 12.1876 5.36842C12.4135 5.67629 12.4647 6.17432 12.3382 6.85043C12.302 7.0436 12.2418 7.32129 12.1635 7.65331C12.6093 8.58296 13.2359 9.60919 13.748 10.3215C14.1757 10.2612 14.5824 10.24 14.9258 10.2762C15.5675 10.3427 15.703 10.6234 15.7271 10.7863C15.7633 11.0248 15.5885 11.2723 15.2903 11.3991C14.8776 11.5741 14.2028 11.5289 13.6546 10.8165C13.6305 10.7863 13.6064 10.7531 13.5823 10.7199C12.8774 10.8377 12.058 11.061 11.2266 11.3719C11.1393 11.4051 11.0549 11.4383 10.9706 11.4715C10.4072 12.8539 9.85597 13.6477 9.32881 13.8379C9.24446 13.8711 9.15409 13.8862 9.06673 13.8862ZM10.4826 11.6798C9.28663 12.2201 8.69319 12.7543 8.63897 13.0893C8.62692 13.1618 8.62692 13.2735 8.78055 13.4002C8.92213 13.5179 9.05769 13.5481 9.20831 13.4938C9.62703 13.3429 10.0729 12.6185 10.4826 11.6798ZM14.007 10.6626C14.4137 11.1425 14.8716 11.1818 15.1487 11.061C15.2933 11.0006 15.3747 10.898 15.3656 10.8407C15.3566 10.7803 15.221 10.6777 14.8897 10.6445C14.6427 10.6203 14.3444 10.6264 14.007 10.6626ZM12.0309 8.20566C11.8472 8.91497 11.5971 9.76917 11.3049 10.5962C11.2537 10.7381 11.2055 10.8739 11.1543 11.0067C11.808 10.7652 12.5972 10.5298 13.3473 10.3879C12.9437 9.81142 12.4466 9.01156 12.0309 8.20566ZM11.7598 5.47406C11.6905 5.49821 11.6453 5.54348 11.6182 5.62196C11.5128 5.91172 11.6514 6.45804 11.9195 7.10397C11.9436 6.98927 11.9646 6.88363 11.9827 6.78704C12.1213 6.03547 11.9887 5.71251 11.8954 5.58876C11.8441 5.51934 11.7899 5.48613 11.7598 5.47406Z" fill="#FF432F"/>
<path d="M7.74219 17.6546H9.04908C9.30863 17.6546 9.53045 17.7028 9.71339 17.7982C9.89748 17.8936 10.037 18.0271 10.1319 18.1966C10.2256 18.3671 10.2725 18.5635 10.2725 18.7845C10.2725 19.0033 10.2256 19.1997 10.1307 19.3691C10.0347 19.5397 9.89405 19.6732 9.70882 19.7663C9.52359 19.8617 9.30063 19.9088 9.03879 19.9088H8.36648V21.0635H7.74219V17.6523V17.6546ZM8.95304 19.4073C9.17943 19.4073 9.35094 19.3512 9.46413 19.2401C9.57847 19.1268 9.6345 18.9764 9.6345 18.7868C9.6345 18.5949 9.57733 18.4434 9.46413 18.3346C9.35094 18.2257 9.17943 18.1707 8.95304 18.1707H8.36648V19.4095H8.95304V19.4073Z" fill="white"/>
<path d="M11.0391 21.0674V17.6562H12.2396C12.5838 17.6562 12.8811 17.7247 13.1303 17.8605C13.3796 17.9962 13.5717 18.1926 13.7043 18.4473C13.8381 18.7043 13.9055 19.0061 13.9055 19.3573C13.9055 19.7108 13.8381 20.016 13.7032 20.2718C13.5694 20.5288 13.3762 20.7251 13.1223 20.862C12.8696 20.9989 12.5689 21.0674 12.2202 21.0674H11.0391ZM12.187 20.5344C12.5495 20.5344 12.8239 20.4368 13.0068 20.2393C13.1898 20.0429 13.2813 19.7478 13.2813 19.3562C13.2813 18.9668 13.1909 18.6751 13.0103 18.4799C12.8296 18.2857 12.5609 18.1881 12.2065 18.1881H11.6634V20.5344H12.187Z" fill="white"/>
<path d="M14.6641 17.6562H16.8925V18.1702H15.2884V19.1026H16.7393V19.6165H15.2884V21.0674H14.6641V17.6562Z" fill="white"/>
</svg>
