<svg width="24" height="24" viewBox="0 0 24 24" fill="none" xmlns="http://www.w3.org/2000/svg">
<path d="M19.996 6.42355L14.9828 1.5H4.80886C4.3623 1.5 4 1.85552 4 2.29372V16.3781H19.996V6.42355Z" fill="#EFF3F5"/>
<path d="M14.9844 5.62982C14.9844 6.06802 15.3467 6.42354 15.7932 6.42354H20.0018L14.9844 1.5V5.62982Z" fill="#DBDFE0"/>
<path d="M4 16.375V21.7078C4 22.146 4.3623 22.5015 4.80886 22.5015H19.1872C19.6337 22.5015 19.996 22.146 19.996 21.7078V16.375H4Z" fill="#2282F3"/>
<path d="M16.2765 18.7473C16.2156 18.5474 16.1076 18.3919 15.9526 18.2808C15.7993 18.168 15.6095 18.1116 15.3831 18.1116C15.1776 18.1116 14.9956 18.1628 14.8371 18.2654C14.6786 18.3662 14.5549 18.5149 14.4661 18.7114C14.3773 18.908 14.3329 19.1421 14.3329 19.4138C14.3329 19.6907 14.3773 19.9283 14.4661 20.1265C14.5549 20.323 14.6795 20.4726 14.8397 20.5751C14.9999 20.6759 15.1863 20.7264 15.3987 20.7264C15.5868 20.7264 15.7514 20.6913 15.8925 20.6213C16.0336 20.5495 16.1433 20.4486 16.2217 20.3188C16.3 20.1872 16.341 20.0342 16.3444 19.8599H15.4667V19.3318H17.0028V19.7779C17.0028 20.0906 16.934 20.364 16.7964 20.5982C16.6605 20.8306 16.4716 21.0101 16.2295 21.1365C15.9874 21.263 15.7105 21.3262 15.3987 21.3262C15.0522 21.3262 14.7465 21.2493 14.4818 21.0955C14.2171 20.94 14.0116 20.7187 13.8653 20.4316C13.7207 20.1444 13.6484 19.8069 13.6484 19.419C13.6484 19.031 13.7225 18.6935 13.8705 18.4064C14.0203 18.1176 14.2258 17.8962 14.487 17.7424C14.75 17.5886 15.0469 17.5117 15.3778 17.5117C15.653 17.5117 15.9047 17.5638 16.1328 17.6681C16.361 17.7723 16.5482 17.9185 16.6945 18.1065C16.8408 18.2927 16.9331 18.5064 16.9714 18.7473H16.2765Z" fill="white"/>
<path d="M10.2812 17.5625H11.7024C11.9845 17.5625 12.2257 17.6146 12.426 17.7189C12.6263 17.8231 12.7778 17.9684 12.8806 18.1547C12.9833 18.3392 13.0347 18.552 13.0347 18.793C13.0347 19.0322 12.9825 19.245 12.878 19.4313C12.7752 19.6159 12.6228 19.7603 12.4208 19.8645C12.2188 19.9671 11.9758 20.0183 11.6919 20.0183H10.9605V21.2745H10.2812V17.5625ZM11.5979 19.4697C11.8452 19.4697 12.0307 19.4091 12.1543 19.2877C12.278 19.1647 12.3398 18.9998 12.3398 18.793C12.3398 18.5845 12.278 18.4204 12.1543 18.3008C12.0307 18.1812 11.8452 18.1213 11.5979 18.1213H10.9605V19.4697H11.5979Z" fill="white"/>
<path d="M9.41899 17.5625V20.1722C9.41899 20.408 9.36848 20.6131 9.26747 20.7874C9.16645 20.96 9.02364 21.0933 8.83903 21.1873C8.65617 21.2796 8.44369 21.3257 8.20161 21.3257C7.97694 21.3257 7.77578 21.2864 7.59814 21.2078C7.42224 21.1275 7.28378 21.0096 7.18277 20.854C7.08176 20.6985 7.03125 20.5105 7.03125 20.2901H7.71047C7.71047 20.4405 7.7575 20.5592 7.85154 20.6464C7.94733 20.7336 8.07273 20.7771 8.22773 20.7771C8.39318 20.7771 8.52032 20.7259 8.60914 20.6233C8.69796 20.5191 8.74325 20.3687 8.74499 20.1722V17.5625H9.41899Z" fill="white"/>
<path fill-rule="evenodd" clip-rule="evenodd" d="M15.7286 6.75H8.29688V14.1876H15.7286V6.75Z" fill="#39CFFF"/>
<path fill-rule="evenodd" clip-rule="evenodd" d="M9.89643 10.5339L11.3716 13.029C12.1745 11.6715 12.9681 7.61813 13.771 8.96607L15.7129 12.2451V14.1858H8.28125V13.2489C8.82276 12.3407 9.35492 9.61615 9.89643 10.5243V10.5339Z" fill="#00B75E"/>
<path d="M10.6213 9.61716C11.1112 9.61716 11.5083 9.21055 11.5083 8.70897C11.5083 8.20739 11.1112 7.80078 10.6213 7.80078C10.1315 7.80078 9.73438 8.20739 9.73438 8.70897C9.73438 9.21055 10.1315 9.61716 10.6213 9.61716Z" fill="white"/>
</svg>
