<svg width="24" height="24" viewBox="0 0 24 24" fill="none" xmlns="http://www.w3.org/2000/svg">
<path d="M19.9959 6.42355L14.9827 1.5H4.80885C4.3623 1.5 4 1.85552 4 2.29372V16.3781H19.9959V6.42355Z" fill="#EFF3F5"/>
<path fill-rule="evenodd" clip-rule="evenodd" d="M15.7285 6.75H8.29688V14.1876H15.7285V6.75Z" fill="#39CFFF"/>
<path fill-rule="evenodd" clip-rule="evenodd" d="M9.89642 10.5339L11.3715 13.029C12.1745 11.6715 12.968 7.61813 13.771 8.96607L15.7129 12.2451V14.1858H8.28125V13.2489C8.82275 12.3407 9.35492 9.61615 9.89642 10.5243V10.5339Z" fill="#00B75E"/>
<path d="M10.6213 9.61716C11.1112 9.61716 11.5083 9.21055 11.5083 8.70897C11.5083 8.20739 11.1112 7.80078 10.6213 7.80078C10.1315 7.80078 9.73438 8.20739 9.73438 8.70897C9.73438 9.21055 10.1315 9.61716 10.6213 9.61716Z" fill="white"/>
<path d="M14.9844 5.62983C14.9844 6.06803 15.3467 6.42355 15.7932 6.42355H20.0018L14.9844 1.5V5.62983Z" fill="#DBDFE0"/>
<path d="M4 16.375V21.7078C4 22.146 4.3623 22.5015 4.80885 22.5015H19.1871C19.6336 22.5015 19.9959 22.146 19.9959 21.7078V16.375H4Z" fill="#2282F3"/>
<path d="M17.8546 18.7473C17.7937 18.5474 17.6857 18.3919 17.5307 18.2808C17.3774 18.168 17.1876 18.1116 16.9612 18.1116C16.7557 18.1116 16.5737 18.1628 16.4152 18.2654C16.2567 18.3662 16.1331 18.5149 16.0442 18.7114C15.9554 18.908 15.911 19.1421 15.911 19.4138C15.911 19.6907 15.9554 19.9283 16.0442 20.1265C16.1331 20.323 16.2576 20.4726 16.4178 20.5751C16.578 20.6759 16.7644 20.7264 16.9769 20.7264C17.1649 20.7264 17.3295 20.6913 17.4706 20.6213C17.6117 20.5495 17.7214 20.4486 17.7998 20.3188C17.8781 20.1872 17.9191 20.0342 17.9225 19.8599H17.0448V19.3318H18.5809V19.7779C18.5809 20.0906 18.5121 20.364 18.3745 20.5982C18.2386 20.8306 18.0497 21.0101 17.8076 21.1365C17.5655 21.263 17.2886 21.3262 16.9769 21.3262C16.6303 21.3262 16.3246 21.2493 16.0599 21.0955C15.7952 20.94 15.5897 20.7187 15.4434 20.4316C15.2988 20.1444 15.2266 19.8069 15.2266 19.419C15.2266 19.031 15.3006 18.6935 15.4486 18.4064C15.5984 18.1176 15.8039 17.8962 16.0651 17.7424C16.3281 17.5886 16.6251 17.5117 16.956 17.5117C17.2311 17.5117 17.4828 17.5638 17.7109 17.6681C17.9391 17.7723 18.1263 17.9185 18.2726 18.1065C18.4189 18.2927 18.5112 18.5064 18.5495 18.7473H17.8546Z" fill="white"/>
<path d="M12.0469 17.5625H14.5077V18.1213H12.7261V19.1365H14.3771V19.6953H12.7261V20.7105H14.5182V21.2745H12.0469V17.5625Z" fill="white"/>
<path d="M8.58594 17.5625H10.0071C10.2892 17.5625 10.5304 17.6146 10.7307 17.7189C10.931 17.8231 11.0825 17.9684 11.1853 18.1547C11.288 18.3392 11.3394 18.552 11.3394 18.793C11.3394 19.0322 11.2871 19.245 11.1826 19.4313C11.0799 19.6159 10.9275 19.7603 10.7255 19.8645C10.5235 19.9671 10.2805 20.0183 9.99662 20.0183H9.26516V21.2745H8.58594V17.5625ZM9.90258 19.4697C10.1499 19.4697 10.3354 19.4091 10.459 19.2877C10.5827 19.1647 10.6445 18.9998 10.6445 18.793C10.6445 18.5845 10.5827 18.4204 10.459 18.3008C10.3354 18.1812 10.1499 18.1213 9.90258 18.1213H9.26516V19.4697H9.90258Z" fill="white"/>
<path d="M7.72365 17.5625V20.1722C7.72365 20.408 7.67315 20.6131 7.57214 20.7874C7.47112 20.96 7.32831 21.0933 7.14371 21.1873C6.96084 21.2796 6.74837 21.3257 6.50628 21.3257C6.28162 21.3257 6.08047 21.2864 5.90282 21.2078C5.72692 21.1275 5.58847 21.0096 5.48746 20.854C5.38644 20.6985 5.33594 20.5105 5.33594 20.2901H6.01516C6.01516 20.4405 6.06218 20.5592 6.15623 20.6464C6.25201 20.7336 6.37741 20.7771 6.53241 20.7771C6.69786 20.7771 6.825 20.7259 6.91382 20.6233C7.00264 20.5191 7.04792 20.3687 7.04966 20.1722V17.5625H7.72365Z" fill="white"/>
</svg>
