<svg width="24" height="24" viewBox="0 0 24 24" fill="none" xmlns="http://www.w3.org/2000/svg">
<path d="M11.9969 14.0996C13.9006 14.0996 15.7701 14.5702 17.3163 15.46C18.8617 16.3495 20.0313 17.6307 20.5721 19.1445C20.7391 19.6125 20.4952 20.1277 20.0272 20.2949C19.5592 20.4621 19.0441 20.218 18.8768 19.75C18.5061 18.7123 17.6665 17.7381 16.4178 17.0195C15.1697 16.3014 13.6153 15.9004 11.9969 15.9004C10.3786 15.9004 8.82413 16.3014 7.57603 17.0195C6.32735 17.7381 5.48777 18.7123 5.11705 19.75C4.94978 20.218 4.43469 20.4621 3.96666 20.2949C3.49868 20.1277 3.25472 19.6125 3.42174 19.1445C3.96258 17.6307 5.13213 16.3495 6.6776 15.46C8.22374 14.5702 10.0933 14.0996 11.9969 14.0996Z" fill="#929292"/>
<path d="M15.0957 8C15.0957 6.28792 13.7082 4.90039 11.9961 4.90039C10.284 4.90039 8.89648 6.28792 8.89648 8C8.89648 9.71208 10.284 11.0996 11.9961 11.0996C13.7082 11.0996 15.0957 9.71208 15.0957 8ZM16.8965 8C16.8965 10.7062 14.7023 12.9004 11.9961 12.9004C9.2899 12.9004 7.0957 10.7062 7.0957 8C7.0957 5.2938 9.2899 3.09961 11.9961 3.09961C14.7023 3.09961 16.8965 5.2938 16.8965 8Z" fill="#929292"/>
</svg>
