<svg width="24" height="24" viewBox="0 0 24 24" fill="none" xmlns="http://www.w3.org/2000/svg">
<path d="M12 1.97266C16.0807 1.97266 19.3886 5.28066 19.3887 9.36133V17.8057H17.5889V9.36133C17.5887 6.27477 15.0866 3.77246 12 3.77246C8.91351 3.77258 6.41125 6.27484 6.41113 9.36133V17.8057H4.61133V9.36133C4.61144 5.28073 7.9194 1.97277 12 1.97266Z" fill="#929292"/>
<path d="M12 22.0273C9.37665 22.0273 7.25 19.9007 7.25 17.2773L7.25 16.75L9.0498 16.75L9.0498 17.2773C9.0498 18.9066 10.3708 20.2275 12 20.2275C13.6292 20.2275 14.9502 18.9066 14.9502 17.2773L14.9502 16.75L16.75 16.75L16.75 17.2773C16.75 19.9007 14.6234 22.0273 12 22.0273Z" fill="#929292"/>
<path d="M20.5996 16.5312C21.0965 16.5312 21.4998 16.9338 21.5 17.4307C21.5 17.9277 21.0967 18.3311 20.5996 18.3311H3.40039C2.90333 18.3311 2.5 17.9277 2.5 17.4307C2.50021 16.9338 2.90346 16.5312 3.40039 16.5312H20.5996Z" fill="#929292"/>
</svg>
