<svg width="24" height="24" viewBox="0 0 24 24" fill="none" xmlns="http://www.w3.org/2000/svg">
<path d="M19.4229 14.6016V4.96289C19.4229 4.35546 18.9306 3.86341 18.3232 3.86328H9.7207C9.11319 3.86328 8.62109 4.35538 8.62109 4.96289V8.08789H6.82031V4.96289C6.82031 3.36127 8.11908 2.0625 9.7207 2.0625H18.3232C19.9248 2.06263 21.2227 3.36135 21.2227 4.96289V14.6016C21.2225 16.203 19.9247 17.5008 18.3232 17.501H16.1025V15.7012H18.3232C18.9306 15.701 19.4227 15.2089 19.4229 14.6016Z" fill="#929292"/>
<path d="M15.3779 9.29102C15.3779 8.6835 14.8858 8.19141 14.2783 8.19141H5.67773C5.07022 8.19141 4.57813 8.6835 4.57812 9.29102V19.0371C4.57812 19.6446 5.07022 20.1367 5.67773 20.1367H14.2783C14.8858 20.1367 15.3779 19.6446 15.3779 19.0371V9.29102ZM17.1787 19.0371C17.1787 20.6387 15.8799 21.9375 14.2783 21.9375H5.67773C4.07611 21.9375 2.77734 20.6387 2.77734 19.0371V9.29102C2.77734 7.68939 4.07611 6.39063 5.67773 6.39062H14.2783C15.8799 6.39062 17.1787 7.68939 17.1787 9.29102V19.0371Z" fill="#929292"/>
</svg>
