<svg width="24" height="24" viewBox="0 0 24 24" fill="none" xmlns="http://www.w3.org/2000/svg">
<path d="M1.09961 20V6C1.09967 5.23095 1.40542 4.49302 1.94922 3.94922C2.49306 3.40543 3.23093 3.10059 4 3.10059H11C11.497 3.10059 11.9003 3.50305 11.9004 4C11.9004 4.49706 11.4971 4.90039 11 4.90039H4C3.70832 4.90039 3.42894 5.01644 3.22266 5.22266C3.01642 5.42889 2.90045 5.70834 2.90039 6V20C2.90039 20.2917 3.01637 20.572 3.22266 20.7783C3.42891 20.9844 3.70844 21.1006 4 21.1006H18C18.2916 21.1006 18.5711 20.9844 18.7773 20.7783C18.9836 20.572 19.0996 20.2917 19.0996 20V13C19.0997 12.503 19.503 12.1006 20 12.1006C20.497 12.1006 20.9003 12.503 20.9004 13V20C20.9004 20.7691 20.5946 21.5069 20.0508 22.0508C19.5069 22.5946 18.7691 22.9004 18 22.9004H4C3.23087 22.9004 2.49307 22.5946 1.94922 22.0508C1.40543 21.5069 1.09961 20.7691 1.09961 20ZM21.2217 4C21.2216 3.67617 21.0923 3.36571 20.8633 3.13672C20.6343 2.90775 20.3239 2.7793 20 2.7793C19.6761 2.7793 19.3657 2.90775 19.1367 3.13672L9.8125 12.4609L9.23633 14.7627L11.54 14.1865L20.8633 4.86426C21.0923 4.63522 21.2217 4.32391 21.2217 4ZM23.0215 4C23.0215 4.80125 22.7033 5.57012 22.1367 6.13672L12.6367 15.6367C12.5215 15.7519 12.3768 15.8334 12.2188 15.873L8.21875 16.873C7.91205 16.9497 7.58682 16.8603 7.36328 16.6367C7.13988 16.4132 7.0504 16.0888 7.12695 15.7822L8.12695 11.7822L8.16406 11.666C8.20911 11.5533 8.27694 11.4507 8.36328 11.3643L17.8633 1.86426C18.4299 1.29765 19.1987 0.978516 20 0.978516C20.8013 0.978516 21.5701 1.29765 22.1367 1.86426C22.703 2.43078 23.0214 3.19895 23.0215 4Z" fill="#929292"/>
</svg>
