<svg width="24" height="24" viewBox="0 0 24 24" fill="none" xmlns="http://www.w3.org/2000/svg">
<path fill-rule="evenodd" clip-rule="evenodd" d="M11.9484 5.81633C13.8625 3.08586 17.9941 2.87428 20.1379 5.63664L20.4318 6.01555C22.3109 8.43749 22.0399 11.8912 19.8059 13.9902L13.2004 20.1952C13.1077 20.2823 12.9919 20.3918 12.882 20.4784C12.7611 20.5737 12.5804 20.6972 12.3342 20.7626C12.0821 20.8295 11.8167 20.8295 11.5647 20.7626C11.3184 20.6972 11.1367 20.5737 11.0158 20.4784C10.906 20.3918 10.7901 20.2822 10.6975 20.1952L4.09298 13.9902C1.85896 11.8913 1.58707 8.43748 3.46602 6.01555L3.75997 5.63664C5.90344 2.87409 10.034 3.08657 11.9484 5.81633Z" fill="#929292"/>
</svg>
