<svg width="24" height="24" viewBox="0 0 24 24" fill="none" xmlns="http://www.w3.org/2000/svg">
<path d="M20.5996 19.4998V9.96857C20.5995 9.63208 20.4458 9.3138 20.1816 9.10529L12.6816 3.18439C12.282 2.86897 11.718 2.86897 11.3184 3.18439L3.81836 9.10529C3.55425 9.3138 3.40053 9.63208 3.40039 9.96857V19.4998C3.40039 20.1073 3.89249 20.5994 4.5 20.5994H8C8.05523 20.5994 8.09961 20.555 8.09961 20.4998V16.4998C8.09961 15.4505 8.95066 14.5994 10 14.5994H14C15.0493 14.5994 15.9004 15.4505 15.9004 16.4998V20.4998C15.9004 20.555 15.9448 20.5994 16 20.5994H19.5C20.1075 20.5994 20.5996 20.1073 20.5996 19.4998ZM22.4004 19.4998C22.4004 21.1014 21.1016 22.4002 19.5 22.4002H16C14.9507 22.4002 14.0996 21.5492 14.0996 20.4998V16.4998C14.0996 16.4446 14.0552 16.4002 14 16.4002H10C9.94477 16.4002 9.90039 16.4446 9.90039 16.4998V20.4998C9.90039 21.5492 9.04934 22.4002 8 22.4002H4.5C2.89837 22.4002 1.59961 21.1014 1.59961 19.4998V9.96857C1.59975 9.08124 2.00669 8.24304 2.70312 7.69318L10.2031 1.77228C11.2567 0.94049 12.7433 0.940491 13.7969 1.77228L21.2969 7.69318C21.9933 8.24304 22.4003 9.08124 22.4004 9.96857V19.4998Z" fill="#929292"/>
</svg>
