<svg width="24" height="24" viewBox="0 0 24 24" fill="none" xmlns="http://www.w3.org/2000/svg">
<path d="M9.3 21.3484C9.57614 21.3484 9.8 21.1246 9.8 20.8484V15.2484C9.8 14.9723 10.0239 14.7484 10.3 14.7484H13.7C13.9761 14.7484 14.2 14.9723 14.2 15.2484V20.8484C14.2 21.1246 14.4239 21.3484 14.7 21.3484H19.2C19.4761 21.3484 19.7 21.1246 19.7 20.8484V13.0484C19.7 12.7723 19.9239 12.5484 20.2 12.5484H21.697C22.1553 12.5484 22.3721 11.9833 22.0315 11.6768L12.3345 2.94947C12.1443 2.77833 11.8557 2.77833 11.6655 2.94947L1.9685 11.6768C1.62789 11.9833 1.84474 12.5484 2.30298 12.5484H3.8C4.07614 12.5484 4.3 12.7723 4.3 13.0484V20.8484C4.3 21.1246 4.52386 21.3484 4.8 21.3484H9.3Z" fill="#929292"/>
</svg>
