<svg width="36" height="36" viewBox="0 0 36 36" fill="none" xmlns="http://www.w3.org/2000/svg">
<rect width="36" height="36" rx="18" fill="#185ABD"/>
<path d="M13.6649 22.8775C13.7145 23.1813 13.7428 23.4882 13.7496 23.7959C13.7705 23.4933 13.8101 23.1923 13.8681 22.8946C13.9053 22.5908 13.9619 22.2897 14.0374 21.9932L16.5098 11.568H19.6257L22.115 21.7721C22.2543 22.4118 22.356 23.0592 22.4198 23.7109C22.4645 23.0825 22.5494 22.4576 22.6738 21.8401L24.672 11.5H27.5L24.0116 26.432H20.7603L18.3726 16.602C18.3726 16.3129 18.2201 15.9558 18.1355 15.4966C18.0508 15.0374 18 14.6973 17.9831 14.4932C17.9831 14.7313 17.9831 15.0884 17.8307 15.5816C17.6783 16.0748 17.6783 16.415 17.6444 16.6361L15.4091 26.5H12.0223L8.5 11.568H11.4296L13.5971 22.0102C13.6384 22.2975 13.661 22.5873 13.6649 22.8775Z" fill="white"/>
</svg>
