<svg width="24" height="24" viewBox="0 0 24 24" fill="none" xmlns="http://www.w3.org/2000/svg">
<path d="M9.89941 12C9.89941 10.8402 10.8392 9.90039 11.999 9.90039C13.1588 9.90039 14.0986 10.8402 14.0986 12C14.0986 13.1598 13.1588 14.0996 11.999 14.0996C10.8392 14.0996 9.89941 13.1598 9.89941 12ZM8.09863 12C8.09863 14.1539 9.84511 15.9004 11.999 15.9004C14.1529 15.9004 15.8994 14.1539 15.8994 12C15.8994 9.84609 14.1529 8.09961 11.999 8.09961C9.84511 8.09961 8.09863 9.84609 8.09863 12Z" fill="#929292"/>
<path d="M19.0985 12C19.0985 10.7878 19.6535 9.7055 20.5184 8.99219C20.5381 8.97595 20.5544 8.95828 20.5663 8.94238L20.5673 8.94043C20.1967 7.90237 19.6426 6.95186 18.9432 6.12598C18.9279 6.12644 18.909 6.12798 18.8885 6.13281C17.959 6.35207 16.9439 6.23353 16.0487 5.7168C15.0736 5.15374 14.4352 4.2318 14.201 3.21777C14.1961 3.1965 14.1892 3.17838 14.1825 3.16406C13.5735 3.01414 12.9399 2.92461 12.288 2.9043L11.9989 2.90039C11.2444 2.90039 10.5124 2.99104 9.81335 3.16309C9.80664 3.17743 9.79974 3.19631 9.7948 3.21777C9.56122 4.23117 8.92454 5.15344 7.94909 5.7168C7.05372 6.23374 6.03799 6.35308 5.10827 6.13379C5.08737 6.12886 5.06818 6.12637 5.05261 6.12598C4.3534 6.95183 3.79908 7.90246 3.42859 8.94043L3.43054 8.94238C3.44245 8.95829 3.45868 8.97594 3.47839 8.99219C4.34345 9.70526 4.89929 10.7873 4.89929 12C4.89929 13.2128 4.34317 14.2941 3.47839 15.0068C3.45871 15.0231 3.44243 15.0408 3.43054 15.0566L3.42859 15.0576C3.79893 16.0956 4.35337 17.046 5.05261 17.8721C5.0682 17.8717 5.08733 17.8711 5.10827 17.8662C6.03831 17.6472 7.0541 17.7665 7.94909 18.2832C8.92414 18.8464 9.56104 19.7681 9.7948 20.7812C9.79962 20.8022 9.80584 20.8208 9.81238 20.835C10.5121 21.0075 11.2443 21.0996 11.9989 21.0996L12.288 21.0957C12.9397 21.0753 13.5733 20.9852 14.1825 20.835C14.1892 20.8206 14.1961 20.8025 14.201 20.7812C14.4354 19.7675 15.0739 18.8461 16.0487 18.2832C16.9434 17.7667 17.9581 17.6474 18.8876 17.8662C18.9081 17.871 18.9269 17.8716 18.9423 17.8721C19.642 17.0458 20.1967 16.0957 20.5673 15.0576L20.5663 15.0566C20.5544 15.0407 20.5381 15.0231 20.5184 15.0068C19.6537 14.2939 19.0985 13.2124 19.0985 12ZM20.8993 12C20.8993 12.6511 21.1945 13.2318 21.663 13.6182C22.1263 14.0001 22.5834 14.7472 22.2899 15.5889C21.8374 16.8865 21.1469 18.0706 20.2714 19.0908C19.7604 19.6862 19.0044 19.7426 18.4755 19.6182C17.9727 19.4998 17.4297 19.5644 16.9491 19.8418C16.425 20.1444 16.0818 20.6376 15.955 21.1865C15.8325 21.7164 15.4466 22.3718 14.6835 22.5654C13.8241 22.7834 12.9245 22.9004 11.9989 22.9004C11.0729 22.9004 10.1725 22.7836 9.31238 22.5654C8.54939 22.3719 8.16327 21.7167 8.04089 21.1865C7.91421 20.6372 7.57204 20.1441 7.0487 19.8418C6.56779 19.5642 6.02454 19.4997 5.52136 19.6182C4.9924 19.7428 4.23569 19.6867 3.72449 19.0908C2.84912 18.0704 2.15923 16.8855 1.70691 15.5879C1.41376 14.7464 1.87036 14.0001 2.33386 13.6182C2.80292 13.2316 3.09851 12.6508 3.09851 12C3.09851 11.3488 2.80284 10.7675 2.33386 10.3809C1.87043 9.99885 1.41343 9.25188 1.70691 8.41016C2.15925 7.11293 2.8492 5.92853 3.72449 4.9082L3.82312 4.80273C4.32944 4.30611 5.02528 4.26478 5.52136 4.38184C6.02483 4.50063 6.56807 4.43563 7.0487 4.1582C7.572 3.856 7.91422 3.36307 8.04089 2.81348C8.16305 2.28319 8.54906 1.62717 9.31238 1.43359C10.1727 1.2157 11.0735 1.09961 11.9989 1.09961C12.9238 1.09965 13.823 1.21592 14.6825 1.43359C15.446 1.62698 15.8325 2.28255 15.955 2.8125C16.0818 3.3618 16.425 3.8556 16.9491 4.1582C17.4297 4.4355 17.9724 4.50048 18.4755 4.38184C18.9715 4.26481 19.6674 4.30611 20.1737 4.80273L20.2723 4.9082L20.5917 5.29883C21.3162 6.22678 21.8941 7.27512 22.2899 8.41016C22.5834 9.25187 22.1262 9.99887 21.663 10.3809C21.1946 10.7673 20.8993 11.3485 20.8993 12Z" fill="#929292"/>
</svg>
