<svg width="24" height="24" viewBox="0 0 24 24" fill="none" xmlns="http://www.w3.org/2000/svg">
<path d="M12.2204 2.15918C13.3013 2.26515 13.8929 3.12807 14.1852 3.6377C14.5315 4.2414 14.8712 5.09735 15.2458 6.03125L15.2819 6.12305C15.5153 6.70503 15.6505 7.03637 15.7741 7.27148C15.8294 7.37674 15.8666 7.42983 15.8864 7.45508C15.8949 7.46598 15.9001 7.47172 15.902 7.47363C15.9033 7.47494 15.9044 7.4752 15.9049 7.47559C15.9054 7.47594 15.9054 7.47673 15.9069 7.47754C15.9087 7.47855 15.9156 7.48191 15.9294 7.4873C15.9591 7.49895 16.0204 7.51928 16.1374 7.54199C16.3981 7.59262 16.7547 7.62568 17.3796 7.68164L17.5944 7.70117C18.5167 7.78377 19.3776 7.85717 20.0202 8.00879C20.5841 8.14187 21.513 8.45359 21.9323 9.39941L22.0094 9.59766L22.068 9.80176C22.3057 10.8089 21.7534 11.6186 21.3844 12.0654C20.9641 12.5746 20.3223 13.1532 19.6374 13.7764L19.1559 14.2148C18.7713 14.5647 18.5529 14.7645 18.403 14.9268C18.3119 15.0253 18.2823 15.0724 18.2751 15.0859C18.2671 15.1063 18.2608 15.1272 18.2555 15.1484C18.2537 15.1638 18.2506 15.2196 18.2682 15.3525C18.2973 15.5714 18.3598 15.8601 18.4723 16.3672L18.5397 16.668C18.7285 17.5187 18.8989 18.2782 18.9655 18.8682C19.0206 19.3567 19.0938 20.3088 18.4381 21.0391C18.1171 21.3965 17.6995 21.6538 17.236 21.7803C16.289 22.0387 15.4712 21.5469 15.0592 21.2783C14.5618 20.954 13.9596 20.4598 13.2838 19.9092C12.7994 19.5145 12.5157 19.2853 12.2907 19.1348C12.1611 19.0481 12.0972 19.0203 12.0758 19.0127C12.0237 19.0044 11.9707 19.0044 11.9186 19.0127C11.8971 19.0204 11.833 19.0484 11.7038 19.1348C11.4787 19.2853 11.195 19.5145 10.7106 19.9092C10.0349 20.4598 9.43265 20.954 8.93521 21.2783C8.52326 21.5469 7.70536 22.0386 6.75846 21.7803C6.29502 21.6538 5.87731 21.3965 5.55631 21.0391C4.90073 20.3088 4.97383 19.3567 5.02896 18.8682C5.09559 18.2782 5.266 17.5187 5.45475 16.668L5.52213 16.3672C5.63465 15.86 5.69718 15.5714 5.72623 15.3525C5.75164 15.161 5.73437 15.1299 5.73893 15.1484C5.7337 15.1272 5.72734 15.1063 5.71939 15.0859C5.71205 15.0723 5.68238 15.0251 5.59146 14.9268C5.44153 14.7646 5.22402 14.5647 4.83951 14.2148L4.35709 13.7764C3.67207 13.1531 3.03039 12.5746 2.61002 12.0654C2.21648 11.5888 1.61458 10.6993 1.98502 9.59766L2.06217 9.39941C2.48146 8.45354 3.41033 8.14187 3.97428 8.00879C4.61689 7.85714 5.47764 7.78378 6.40006 7.70117L6.6149 7.68164C7.23984 7.62567 7.59631 7.59263 7.85709 7.54199C7.97412 7.51927 8.03532 7.49896 8.0651 7.4873C8.07897 7.48187 8.08571 7.47855 8.08756 7.47754C8.08918 7.47665 8.08998 7.47597 8.09049 7.47559C8.09085 7.4753 8.09153 7.47453 8.09244 7.47363C8.09427 7.4718 8.09937 7.46616 8.10807 7.45508C8.12782 7.42987 8.16498 7.37687 8.22037 7.27148C8.34391 7.03638 8.4791 6.70505 8.71256 6.12305L8.74869 6.03125C9.12329 5.09737 9.463 4.24141 9.80924 3.6377C10.1211 3.09405 10.7741 2.14844 11.9977 2.14844L12.2204 2.15918ZM11.9977 3.64844C11.3214 3.64844 10.9278 4.62894 10.1413 6.58984L10.1042 6.68164L9.80533 7.41309C9.53409 8.05218 9.32468 8.42714 8.98502 8.67969C8.53217 9.01638 7.93761 9.0693 6.74869 9.17578L6.53385 9.19531C4.58804 9.36958 3.61507 9.45719 3.40689 10.0762C3.19914 10.695 3.92123 11.3527 5.36588 12.667L5.8483 13.1055C6.57975 13.7709 6.94539 14.104 7.11588 14.54C7.14764 14.6213 7.17507 14.7044 7.19596 14.7891C7.30801 15.2437 7.2002 15.7269 6.986 16.6924L6.91959 16.9932L6.66666 18.1631C6.46131 19.1791 6.41481 19.7501 6.67252 20.0371C6.80094 20.1801 6.96855 20.2834 7.15396 20.334C7.52605 20.4351 8.0153 20.1372 8.83072 19.498L9.76334 18.7471C10.5728 18.0875 11.0281 17.7164 11.485 17.5771L11.6823 17.5312C11.8911 17.4979 12.1043 17.4979 12.3131 17.5312C12.844 17.6162 13.3063 17.9935 14.2311 18.7471C15.5522 19.8236 16.2543 20.3951 16.7458 20.3506L16.8415 20.334C16.9804 20.2961 17.1087 20.2282 17.2184 20.1367L17.3219 20.0371C17.5797 19.7501 17.5332 19.1792 17.3278 18.1631L17.0749 16.9932L17.0085 16.6924C16.821 15.8474 16.7155 15.3722 16.7672 14.9619L16.7995 14.7891C16.8099 14.7467 16.8214 14.7046 16.8346 14.6631L16.8786 14.54C17.0065 14.2129 17.2441 13.9438 17.6637 13.5488L18.1462 13.1055L18.6286 12.667C20.0733 11.3526 20.7954 10.6951 20.5876 10.0762C20.3794 9.45719 19.4064 9.36958 17.4606 9.19531L17.2458 9.17578C16.0569 9.06931 15.4623 9.01637 15.0094 8.67969C14.6698 8.42713 14.4603 8.05214 14.1891 7.41309L13.8903 6.68164L13.8532 6.58984C13.0668 4.62936 12.6738 3.64882 11.9977 3.64844Z" fill="#929292"/>
</svg>
