<svg width="24" height="24" viewBox="0 0 24 24" fill="none" xmlns="http://www.w3.org/2000/svg">
<path d="M19.9951 6.42365L14.9822 1.5H4.80881C4.36228 1.5 4 1.85553 4 2.29374V16.3784H19.9951V6.42365Z" fill="#EFF3F5"/>
<path d="M14.9844 5.62982C14.9844 6.06802 15.3466 6.42354 15.7932 6.42354H20.0014L14.9844 1.5V5.62982Z" fill="#DBDFE0"/>
<path d="M4.00781 16.375V21.7079C4.00781 22.1461 4.37009 22.5017 4.81663 22.5017H19.1941C19.6406 22.5017 20.0029 22.1461 20.0029 21.7079V16.375H4.00781Z" fill="#535353"/>
<path d="M14.0859 17.5117H17.1004V18.0706H15.9354V21.2237H15.2562V18.0706H14.0859V17.5117Z" fill="white"/>
<path d="M11.9581 18.8755H11.9895L12.8306 17.5117H13.6038L12.4388 19.3677L13.6247 21.2237H12.8358L11.9895 19.8701H11.9581L11.1118 21.2237H10.3281L11.5245 19.3677L10.3438 17.5117H11.1275L11.9581 18.8755Z" fill="white"/>
<path d="M6.85156 17.5117H9.86604V18.0706H8.701V21.2237H8.02183V18.0706H6.85156V17.5117Z" fill="white"/>
<path fill-rule="evenodd" clip-rule="evenodd" d="M7.57031 12.1562H15.5109V13.1013H7.57031V12.1562Z" fill="#A2A2A2"/>
<path fill-rule="evenodd" clip-rule="evenodd" d="M7.57031 10.3594H16.2537V11.2939H7.57031V10.3594Z" fill="#A2A2A2"/>
<path fill-rule="evenodd" clip-rule="evenodd" d="M7.57031 8.55469H13.6432V9.4892H7.57031V8.55469Z" fill="#A2A2A2"/>
<path fill-rule="evenodd" clip-rule="evenodd" d="M7.57031 6.75H16.2537V7.68451H7.57031V6.75Z" fill="#A2A2A2"/>
</svg>
