<svg xmlns="http://www.w3.org/2000/svg" style="display:none">
  <symbol id="icon-alarm" viewBox="0 0 24 24"><path d="M12 1.97266C16.0807 1.97266 19.3886 5.28066 19.3887 9.36133V17.8057H17.5889V9.36133C17.5887 6.27477 15.0866 3.77246 12 3.77246C8.91351 3.77258 6.41125 6.27484 6.41113 9.36133V17.8057H4.61133V9.36133C4.61144 5.28073 7.9194 1.97277 12 1.97266Z" fill="currentColor"/> <path d="M12 22.0273C9.37665 22.0273 7.25 19.9007 7.25 17.2773L7.25 16.75L9.0498 16.75L9.0498 17.2773C9.0498 18.9066 10.3708 20.2275 12 20.2275C13.6292 20.2275 14.9502 18.9066 14.9502 17.2773L14.9502 16.75L16.75 16.75L16.75 17.2773C16.75 19.9007 14.6234 22.0273 12 22.0273Z" fill="currentColor"/> <path d="M20.5996 16.5312C21.0965 16.5312 21.4998 16.9338 21.5 17.4307C21.5 17.9277 21.0967 18.3311 20.5996 18.3311H3.40039C2.90333 18.3311 2.5 17.9277 2.5 17.4307C2.50021 16.9338 2.90346 16.5312 3.40039 16.5312H20.5996Z" fill="currentColor"/></symbol>
  <symbol id="icon-arrow-right" viewBox="0 0 24 24"><path d="M11.8291 5.32805C12.2001 4.95706 12.8019 4.95706 13.1729 5.32805L19.1729 11.3281C19.5438 11.6991 19.5438 12.3008 19.1729 12.6718L13.1729 18.6718C12.8019 19.0428 12.2001 19.0428 11.8291 18.6718C11.4581 18.3008 11.4581 17.6991 11.8291 17.3281L16.207 12.9501H5.50098C4.97631 12.9501 4.55078 12.5246 4.55078 11.9999C4.55078 11.4753 4.97631 11.0497 5.50098 11.0497H16.207L11.8291 6.6718C11.4581 6.30081 11.4581 5.69905 11.8291 5.32805Z" fill="currentColor"/></symbol>
  <symbol id="icon-calendar" viewBox="0 0 24 24"><path d="M16.5 1.09961C16.9971 1.09961 17.4004 1.50294 17.4004 2V2.59961H19C20.6016 2.59961 21.9004 3.89837 21.9004 5.5V19.5C21.9004 21.1016 20.6016 22.4004 19 22.4004H5C3.39837 22.4004 2.09961 21.1016 2.09961 19.5V5.5C2.09961 3.89837 3.39837 2.59961 5 2.59961H6.59961V2C6.59961 1.50294 7.00294 1.09961 7.5 1.09961C7.99706 1.09961 8.40039 1.50294 8.40039 2V2.59961H15.5996V2C15.5996 1.50294 16.0029 1.09961 16.5 1.09961ZM3.90039 19.5C3.90039 20.1075 4.39249 20.5996 5 20.5996H19C19.6075 20.5996 20.0996 20.1075 20.0996 19.5V9.40039H3.90039V19.5ZM7.5 15.5996C7.99706 15.5996 8.40039 16.0029 8.40039 16.5C8.40039 16.9971 7.99706 17.4004 7.5 17.4004H6.5C6.00294 17.4004 5.59961 16.9971 5.59961 16.5C5.59961 16.0029 6.00294 15.5996 6.5 15.5996H7.5ZM12.5 15.5996C12.9971 15.5996 13.4004 16.0029 13.4004 16.5C13.4004 16.9971 12.9971 17.4004 12.5 17.4004H11.5C11.0029 17.4004 10.5996 16.9971 10.5996 16.5C10.5996 16.0029 11.0029 15.5996 11.5 15.5996H12.5ZM17.5 15.5996C17.9971 15.5996 18.4004 16.0029 18.4004 16.5C18.4004 16.9971 17.9971 17.4004 17.5 17.4004H16.5C16.0029 17.4004 15.5996 16.9971 15.5996 16.5C15.5996 16.0029 16.0029 15.5996 16.5 15.5996H17.5ZM7.5 11.5996C7.99706 11.5996 8.40039 12.0029 8.40039 12.5C8.40039 12.9971 7.99706 13.4004 7.5 13.4004H6.5C6.00294 13.4004 5.59961 12.9971 5.59961 12.5C5.59961 12.0029 6.00294 11.5996 6.5 11.5996H7.5ZM12.5 11.5996C12.9971 11.5996 13.4004 12.0029 13.4004 12.5C13.4004 12.9971 12.9971 13.4004 12.5 13.4004H11.5C11.0029 13.4004 10.5996 12.9971 10.5996 12.5C10.5996 12.0029 11.0029 11.5996 11.5 11.5996H12.5ZM17.5 11.5996C17.9971 11.5996 18.4004 12.0029 18.4004 12.5C18.4004 12.9971 17.9971 13.4004 17.5 13.4004H16.5C16.0029 13.4004 15.5996 12.9971 15.5996 12.5C15.5996 12.0029 16.0029 11.5996 16.5 11.5996H17.5ZM5 4.40039C4.39249 4.40039 3.90039 4.89249 3.90039 5.5V7.59961H20.0996V5.5C20.0996 4.89249 19.6075 4.40039 19 4.40039H17.4004V5C17.4004 5.49706 16.9971 5.90039 16.5 5.90039C16.0029 5.90039 15.5996 5.49706 15.5996 5V4.40039H8.40039V5C8.40039 5.49706 7.99706 5.90039 7.5 5.90039C7.00294 5.90039 6.59961 5.49706 6.59961 5V4.40039H5Z" fill="currentColor"/></symbol>
  <symbol id="icon-check" viewBox="0 0 24 24"><path d="M17.1639 6.32951C17.5781 5.896 18.2565 5.88947 18.679 6.31447C19.1013 6.73967 19.1077 7.43616 18.6937 7.86998L10.2968 16.6702C10.095 16.8816 9.81814 17.0003 9.52986 17C9.24175 16.9996 8.96624 16.8797 8.76499 16.6681L4.30445 11.9747C3.89125 11.5398 3.89973 10.8434 4.32328 10.4192C4.74685 9.99495 5.42516 10.0037 5.83838 10.4385L9.53196 14.3262L17.1639 6.32951Z" fill="currentColor"/></symbol>
  <symbol id="icon-chevron-down" viewBox="0 0 24 24"><path d="M18.2929 7.79289C18.6834 7.40237 19.3164 7.40237 19.707 7.79289C20.0975 8.18342 20.0975 8.81643 19.707 9.20696L12.707 16.207C12.3164 16.5975 11.6834 16.5975 11.2929 16.207L4.29289 9.20696C3.90237 8.81643 3.90237 8.18342 4.29289 7.79289C4.68342 7.40237 5.31643 7.40237 5.70696 7.79289L11.9999 14.0859L18.2929 7.79289Z" fill="currentColor"/></symbol>
  <symbol id="icon-chevron-left" viewBox="0 0 24 24"><path d="M14.2929 4.29289C14.6834 3.90237 15.3164 3.90237 15.707 4.29289C16.0975 4.68342 16.0975 5.31643 15.707 5.70696L9.41399 11.9999L15.707 18.2929C16.0975 18.6834 16.0975 19.3164 15.707 19.707C15.3164 20.0975 14.6834 20.0975 14.2929 19.707L7.29289 12.707C6.90237 12.3164 6.90237 11.6834 7.29289 11.2929L14.2929 4.29289Z" fill="currentColor"/></symbol>
  <symbol id="icon-chevron-right" viewBox="0 0 24 24"><path d="M8.29289 4.29289C8.68342 3.90237 9.31643 3.90237 9.70696 4.29289L16.707 11.2929C17.0975 11.6834 17.0975 12.3164 16.707 12.707L9.70696 19.707C9.31643 20.0975 8.68342 20.0975 8.29289 19.707C7.90237 19.3164 7.90237 18.6834 8.29289 18.2929L14.5859 11.9999L8.29289 5.70696C7.90237 5.31643 7.90237 4.68342 8.29289 4.29289Z" fill="currentColor"/></symbol>
  <symbol id="icon-chevron-up" viewBox="0 0 24 24"><path d="M11.3691 7.72437C11.7618 7.40402 12.3408 7.42662 12.707 7.79273L19.707 14.7927C20.0975 15.1833 20.0975 15.8163 19.707 16.2068C19.3164 16.5973 18.6834 16.5973 18.2929 16.2068L11.9999 9.91383L5.70696 16.2068C5.31643 16.5973 4.68342 16.5973 4.29289 16.2068C3.90237 15.8163 3.90237 15.1833 4.29289 14.7927L11.2929 7.79273L11.3691 7.72437Z" fill="currentColor"/></symbol>
  <symbol id="icon-copy" viewBox="0 0 24 24"><path d="M19.4229 14.6016V4.96289C19.4229 4.35546 18.9306 3.86341 18.3232 3.86328H9.7207C9.11319 3.86328 8.62109 4.35538 8.62109 4.96289V8.08789H6.82031V4.96289C6.82031 3.36127 8.11908 2.0625 9.7207 2.0625H18.3232C19.9248 2.06263 21.2227 3.36135 21.2227 4.96289V14.6016C21.2225 16.203 19.9247 17.5008 18.3232 17.501H16.1025V15.7012H18.3232C18.9306 15.701 19.4227 15.2089 19.4229 14.6016Z" fill="currentColor"/> <path d="M15.3779 9.29102C15.3779 8.6835 14.8858 8.19141 14.2783 8.19141H5.67773C5.07022 8.19141 4.57813 8.6835 4.57812 9.29102V19.0371C4.57812 19.6446 5.07022 20.1367 5.67773 20.1367H14.2783C14.8858 20.1367 15.3779 19.6446 15.3779 19.0371V9.29102ZM17.1787 19.0371C17.1787 20.6387 15.8799 21.9375 14.2783 21.9375H5.67773C4.07611 21.9375 2.77734 20.6387 2.77734 19.0371V9.29102C2.77734 7.68939 4.07611 6.39063 5.67773 6.39062H14.2783C15.8799 6.39062 17.1787 7.68939 17.1787 9.29102V19.0371Z" fill="currentColor"/></symbol>
  <symbol id="icon-delete" viewBox="0 0 24 24"><path d="M18.0996 6.90039H5.90039V20C5.90039 20.2917 6.01637 20.5711 6.22266 20.7773C6.42895 20.9836 6.70826 21.0996 7 21.0996H17C17.2917 21.0996 17.5711 20.9836 17.7773 20.7773C17.9836 20.5711 18.0996 20.2917 18.0996 20V6.90039ZM9.09961 17V11C9.09961 10.5029 9.50294 10.0996 10 10.0996C10.4971 10.0996 10.9004 10.5029 10.9004 11V17C10.9004 17.4971 10.4971 17.9004 10 17.9004C9.50294 17.9004 9.09961 17.4971 9.09961 17ZM13.0996 17V11C13.0996 10.5029 13.5029 10.0996 14 10.0996C14.4971 10.0996 14.9004 10.5029 14.9004 11V17C14.9004 17.4971 14.4971 17.9004 14 17.9004C13.5029 17.9004 13.0996 17.4971 13.0996 17ZM15.0996 4C15.0996 3.70826 14.9836 3.42895 14.7773 3.22266C14.5711 3.01637 14.2917 2.90039 14 2.90039H10C9.70826 2.90039 9.42895 3.01637 9.22266 3.22266C9.01637 3.42895 8.90039 3.70826 8.90039 4V5.09961H15.0996V4ZM16.9004 5.09961H21C21.4971 5.09961 21.9004 5.50294 21.9004 6C21.9004 6.49706 21.4971 6.90039 21 6.90039H19.9004V20C19.9004 20.7691 19.5946 21.5069 19.0508 22.0508C18.5069 22.5946 17.7691 22.9004 17 22.9004H7C6.23087 22.9004 5.49307 22.5946 4.94922 22.0508C4.40536 21.5069 4.09961 20.7691 4.09961 20V6.90039H3C2.50294 6.90039 2.09961 6.49706 2.09961 6C2.09961 5.50294 2.50294 5.09961 3 5.09961H7.09961V4C7.09961 3.23087 7.40536 2.49307 7.94922 1.94922C8.49307 1.40536 9.23087 1.09961 10 1.09961H14C14.7691 1.09961 15.5069 1.40536 16.0508 1.94922C16.5946 2.49307 16.9004 3.23087 16.9004 4V5.09961Z" fill="currentColor"/></symbol>
  <symbol id="icon-edit" viewBox="0 0 24 24"><path d="M1.09961 20V6C1.09967 5.23095 1.40542 4.49302 1.94922 3.94922C2.49306 3.40543 3.23093 3.10059 4 3.10059H11C11.497 3.10059 11.9003 3.50305 11.9004 4C11.9004 4.49706 11.4971 4.90039 11 4.90039H4C3.70832 4.90039 3.42894 5.01644 3.22266 5.22266C3.01642 5.42889 2.90045 5.70834 2.90039 6V20C2.90039 20.2917 3.01637 20.572 3.22266 20.7783C3.42891 20.9844 3.70844 21.1006 4 21.1006H18C18.2916 21.1006 18.5711 20.9844 18.7773 20.7783C18.9836 20.572 19.0996 20.2917 19.0996 20V13C19.0997 12.503 19.503 12.1006 20 12.1006C20.497 12.1006 20.9003 12.503 20.9004 13V20C20.9004 20.7691 20.5946 21.5069 20.0508 22.0508C19.5069 22.5946 18.7691 22.9004 18 22.9004H4C3.23087 22.9004 2.49307 22.5946 1.94922 22.0508C1.40543 21.5069 1.09961 20.7691 1.09961 20ZM21.2217 4C21.2216 3.67617 21.0923 3.36571 20.8633 3.13672C20.6343 2.90775 20.3239 2.7793 20 2.7793C19.6761 2.7793 19.3657 2.90775 19.1367 3.13672L9.8125 12.4609L9.23633 14.7627L11.54 14.1865L20.8633 4.86426C21.0923 4.63522 21.2217 4.32391 21.2217 4ZM23.0215 4C23.0215 4.80125 22.7033 5.57012 22.1367 6.13672L12.6367 15.6367C12.5215 15.7519 12.3768 15.8334 12.2188 15.873L8.21875 16.873C7.91205 16.9497 7.58682 16.8603 7.36328 16.6367C7.13988 16.4132 7.0504 16.0888 7.12695 15.7822L8.12695 11.7822L8.16406 11.666C8.20911 11.5533 8.27694 11.4507 8.36328 11.3643L17.8633 1.86426C18.4299 1.29765 19.1987 0.978516 20 0.978516C20.8013 0.978516 21.5701 1.29765 22.1367 1.86426C22.703 2.43078 23.0214 3.19895 23.0215 4Z" fill="currentColor"/></symbol>
  <symbol id="icon-eye" viewBox="0 0 24 24"><path d="M12.0013 5.10156C16.1394 5.10157 19.739 7.40109 21.5902 10.7861C22.0046 11.5442 22.0047 12.4607 21.5902 13.2188C19.7389 16.6035 16.1392 18.9023 12.0013 18.9023C7.8632 18.9023 4.26362 16.6028 2.41244 13.2178C1.99799 12.4597 1.99789 11.5432 2.41244 10.7852C4.26371 7.4004 7.8634 5.10156 12.0013 5.10156ZM12.0013 6.90234C8.54614 6.90234 5.53917 8.81955 3.99154 11.6494C3.87134 11.8693 3.8713 12.1346 3.99154 12.3545C5.53914 15.1844 8.5461 17.1016 12.0013 17.1016C15.4565 17.1016 18.4634 15.1844 20.0111 12.3545C20.1313 12.1346 20.1313 11.8693 20.0111 11.6494C18.4635 8.81949 15.4565 6.90235 12.0013 6.90234Z" fill="currentColor"/> <path d="M14.1016 12.002C14.1016 10.8422 13.1618 9.90234 12.002 9.90234C10.8422 9.90234 9.90234 10.8422 9.90234 12.002C9.90234 13.1618 10.8422 14.1016 12.002 14.1016C13.1618 14.1016 14.1016 13.1618 14.1016 12.002ZM15.9023 12.002C15.9023 14.1559 14.1559 15.9023 12.002 15.9023C9.84804 15.9023 8.10156 14.1559 8.10156 12.002C8.10156 9.84804 9.84804 8.10156 12.002 8.10156C14.1559 8.10156 15.9023 9.84804 15.9023 12.002Z" fill="currentColor"/></symbol>
  <symbol id="icon-heart-solid" viewBox="0 0 24 24"><path fill-rule="evenodd" clip-rule="evenodd" d="M11.9484 5.81633C13.8625 3.08586 17.9941 2.87428 20.1379 5.63664L20.4318 6.01555C22.3109 8.43749 22.0399 11.8912 19.8059 13.9902L13.2004 20.1952C13.1077 20.2823 12.9919 20.3918 12.882 20.4784C12.7611 20.5737 12.5804 20.6972 12.3342 20.7626C12.0821 20.8295 11.8167 20.8295 11.5647 20.7626C11.3184 20.6972 11.1367 20.5737 11.0158 20.4784C10.906 20.3918 10.7901 20.2822 10.6975 20.1952L4.09298 13.9902C1.85896 11.8913 1.58707 8.43748 3.46602 6.01555L3.75997 5.63664C5.90344 2.87409 10.034 3.08657 11.9484 5.81633Z" fill="currentColor"/></symbol>
  <symbol id="icon-home-solid" viewBox="0 0 24 24"><path d="M9.3 21.3484C9.57614 21.3484 9.8 21.1246 9.8 20.8484V15.2484C9.8 14.9723 10.0239 14.7484 10.3 14.7484H13.7C13.9761 14.7484 14.2 14.9723 14.2 15.2484V20.8484C14.2 21.1246 14.4239 21.3484 14.7 21.3484H19.2C19.4761 21.3484 19.7 21.1246 19.7 20.8484V13.0484C19.7 12.7723 19.9239 12.5484 20.2 12.5484H21.697C22.1553 12.5484 22.3721 11.9833 22.0315 11.6768L12.3345 2.94947C12.1443 2.77833 11.8557 2.77833 11.6655 2.94947L1.9685 11.6768C1.62789 11.9833 1.84474 12.5484 2.30298 12.5484H3.8C4.07614 12.5484 4.3 12.7723 4.3 13.0484V20.8484C4.3 21.1246 4.52386 21.3484 4.8 21.3484H9.3Z" fill="currentColor"/></symbol>
  <symbol id="icon-home" viewBox="0 0 24 24"><path d="M20.5996 19.4998V9.96857C20.5995 9.63208 20.4458 9.3138 20.1816 9.10529L12.6816 3.18439C12.282 2.86897 11.718 2.86897 11.3184 3.18439L3.81836 9.10529C3.55425 9.3138 3.40053 9.63208 3.40039 9.96857V19.4998C3.40039 20.1073 3.89249 20.5994 4.5 20.5994H8C8.05523 20.5994 8.09961 20.555 8.09961 20.4998V16.4998C8.09961 15.4505 8.95066 14.5994 10 14.5994H14C15.0493 14.5994 15.9004 15.4505 15.9004 16.4998V20.4998C15.9004 20.555 15.9448 20.5994 16 20.5994H19.5C20.1075 20.5994 20.5996 20.1073 20.5996 19.4998ZM22.4004 19.4998C22.4004 21.1014 21.1016 22.4002 19.5 22.4002H16C14.9507 22.4002 14.0996 21.5492 14.0996 20.4998V16.4998C14.0996 16.4446 14.0552 16.4002 14 16.4002H10C9.94477 16.4002 9.90039 16.4446 9.90039 16.4998V20.4998C9.90039 21.5492 9.04934 22.4002 8 22.4002H4.5C2.89837 22.4002 1.59961 21.1014 1.59961 19.4998V9.96857C1.59975 9.08124 2.00669 8.24304 2.70312 7.69318L10.2031 1.77228C11.2567 0.94049 12.7433 0.940491 13.7969 1.77228L21.2969 7.69318C21.9933 8.24304 22.4003 9.08124 22.4004 9.96857V19.4998Z" fill="currentColor"/></symbol>
  <symbol id="icon-icon-link-acrobat" viewBox="0 0 36 36"><rect width="36" height="36" rx="18" fill="currentColor"/> <path d="M10.8366 27.29C10.4153 27.29 10.0078 27.1279 9.63492 26.8106C9.00647 26.2747 8.95812 25.6824 9.02028 25.2805C9.32415 23.4683 12.6253 21.8113 14.5451 20.9934C15.588 18.328 16.4927 15.1902 17.052 12.8352C15.9333 10.3884 15.5396 8.66087 15.8849 7.68075C16.0576 7.19422 16.4098 6.87692 16.907 6.7641L16.9761 6.75L17.0451 6.75705C17.1004 6.7641 17.5907 6.84166 17.9913 7.39166C18.5092 8.11087 18.6266 9.27432 18.3366 10.8538C18.2537 11.3051 18.1156 11.9538 17.936 12.7294C18.9581 14.9011 20.3946 17.2985 21.5686 18.9626C22.5493 18.8216 23.4816 18.7722 24.2689 18.8568C25.7399 19.012 26.0507 19.6677 26.1059 20.0485C26.1888 20.6055 25.7882 21.1837 25.1045 21.4799C24.1584 21.8888 22.6114 21.7831 21.3545 20.119C21.2993 20.0485 21.244 19.9709 21.1888 19.8934C19.5728 20.1684 17.6943 20.6902 15.7882 21.4164C15.588 21.494 15.3946 21.5715 15.2012 21.6491C13.9098 24.8785 12.646 26.733 11.4374 27.1772C11.244 27.2548 11.0369 27.29 10.8366 27.29ZM14.0824 22.1356C11.3407 23.3978 9.98022 24.6459 9.85591 25.4285C9.82829 25.5978 9.82829 25.8587 10.1805 26.1548C10.5051 26.4298 10.8159 26.5003 11.1612 26.3734C12.1211 26.0208 13.1432 24.3286 14.0824 22.1356ZM22.1625 19.7594C23.0949 20.8805 24.1446 20.9722 24.7799 20.6901C25.1114 20.5491 25.2979 20.3094 25.2772 20.1754C25.2565 20.0344 24.9457 19.7947 24.186 19.7171C23.6197 19.6607 22.936 19.6748 22.1625 19.7594ZM17.6322 14.0197C17.2109 15.6768 16.6377 17.6723 15.9678 19.6043C15.8504 19.9357 15.7399 20.253 15.6225 20.5632C17.1211 19.9991 18.9305 19.4491 20.6501 19.1177C19.7247 17.771 18.5852 15.9024 17.6322 14.0197ZM17.0106 7.63845C16.8518 7.69486 16.7482 7.80062 16.686 7.98395C16.4443 8.66086 16.762 9.93713 17.3766 11.4461C17.4319 11.1781 17.4802 10.9313 17.5217 10.7057C17.8393 8.94996 17.5355 8.19549 17.3214 7.90639C17.204 7.74421 17.0797 7.66665 17.0106 7.63845Z" fill="white"/></symbol>
  <symbol id="icon-icon-link-excel" viewBox="0 0 36 36"><rect width="36" height="36" rx="18" fill="currentColor"/> <path d="M10.5 25.9274L15.8969 17.9637L10.8841 10H14.9174L17.6447 15.0794C17.8944 15.551 18.0672 15.9138 18.1633 16.1497C18.3361 15.7687 18.5282 15.3878 18.7202 15.0249L21.6396 10H25.3464L20.2375 17.9637L25.5 26H21.6588L18.4898 20.4308C18.3458 20.1933 18.2237 19.9444 18.1248 19.6871C18.0331 19.9414 17.9106 20.1848 17.7599 20.4127L14.3412 25.9274H10.5Z" fill="white"/></symbol>
  <symbol id="icon-icon-link-hwp" viewBox="0 0 36 36"><rect width="36" height="36" rx="18" fill="currentColor"/> <path d="M19.5701 10.0149V8H16.4556V10.0149H12.1875V12.3774H16.4556H19.5701H23.8381V10.0149H19.5701Z" fill="white"/> <path d="M17.9782 13.2188C15.6949 13.2188 13.8438 15.0018 13.8438 17.2011C13.8438 19.4003 15.6949 21.1834 17.9782 21.1834C20.2615 21.1834 22.1126 19.4003 22.1126 17.2011C22.1126 15.0018 20.2615 13.2188 17.9782 13.2188ZM17.9782 19.2011C16.8314 19.2011 15.9019 18.3056 15.9019 17.2011C15.9019 16.0965 16.8316 15.201 17.9782 15.201C19.1247 15.201 20.0547 16.0965 20.0547 17.2011C20.0547 18.3056 19.1249 19.2011 17.9782 19.2011Z" fill="white"/> <path d="M13.8448 25.8152V23.0117H11.5781V25.8152V27.9983H13.8448H24.4209V25.8152H13.8448Z" fill="white"/> <path d="M18.0227 24.9961C18.8033 24.9961 19.4361 24.3866 19.4361 23.6348C19.4361 22.8829 18.8033 22.2734 18.0227 22.2734C17.2422 22.2734 16.6094 22.8829 16.6094 23.6348C16.6094 24.3866 17.2422 24.9961 18.0227 24.9961Z" fill="white"/></symbol>
  <symbol id="icon-icon-link-ppt" viewBox="0 0 36 36"><rect width="36" height="36" rx="18" fill="currentColor"/> <path d="M18.2111 10.0156C19.7475 9.90792 21.2714 10.3615 22.5124 11.2958C23.0101 11.7535 23.4015 12.3196 23.6578 12.9525C23.9142 13.5855 24.029 14.2692 23.9938 14.9535C24.0242 15.9338 23.7732 16.9017 23.2719 17.7372C22.7707 18.5727 22.0412 19.2391 21.1738 19.6538C20.1829 20.1169 19.1037 20.348 18.0147 20.3305H15.052V26H12V10.0156H18.2111ZM15.0341 17.9346H17.6756C18.5061 18.0029 19.332 17.7555 19.9959 17.2396C20.267 16.9716 20.4777 16.6462 20.6133 16.2861C20.749 15.926 20.8062 15.5399 20.7812 15.1547C20.7812 13.3258 19.7817 12.5028 17.7649 12.5028H15.052L15.0341 17.9346Z" fill="white"/></symbol>
  <symbol id="icon-icon-link-word" viewBox="0 0 36 36"><rect width="36" height="36" rx="18" fill="currentColor"/> <path d="M13.6649 22.8775C13.7145 23.1813 13.7428 23.4882 13.7496 23.7959C13.7705 23.4933 13.8101 23.1923 13.8681 22.8946C13.9053 22.5908 13.9619 22.2897 14.0374 21.9932L16.5098 11.568H19.6257L22.115 21.7721C22.2543 22.4118 22.356 23.0592 22.4198 23.7109C22.4645 23.0825 22.5494 22.4576 22.6738 21.8401L24.672 11.5H27.5L24.0116 26.432H20.7603L18.3726 16.602C18.3726 16.3129 18.2201 15.9558 18.1355 15.4966C18.0508 15.0374 18 14.6973 17.9831 14.4932C17.9831 14.7313 17.9831 15.0884 17.8307 15.5816C17.6783 16.0748 17.6783 16.415 17.6444 16.6361L15.4091 26.5H12.0223L8.5 11.568H11.4296L13.5971 22.0102C13.6384 22.2975 13.661 22.5873 13.6649 22.8775Z" fill="white"/></symbol>
  <symbol id="icon-menu" viewBox="0 0 24 24"><path fill-rule="evenodd" clip-rule="evenodd" d="M4.87485 6.61677C4.87485 7.01025 5.19383 7.32924 5.58732 7.32924H18.4118C18.8053 7.32924 19.1243 7.01025 19.1243 6.61677C19.1243 6.22328 18.8053 5.9043 18.4118 5.9043H5.58732C5.19383 5.9043 4.87485 6.22328 4.87485 6.61677Z" fill="currentColor"/> <path fill-rule="evenodd" clip-rule="evenodd" d="M4.87485 11.9996C4.87485 12.3931 5.19383 12.7121 5.58732 12.7121H18.4118C18.8053 12.7121 19.1243 12.3931 19.1243 11.9996C19.1243 11.6061 18.8053 11.2871 18.4118 11.2871H5.58732C5.19383 11.2871 4.87485 11.6061 4.87485 11.9996Z" fill="currentColor"/> <path fill-rule="evenodd" clip-rule="evenodd" d="M4.87485 17.3834C4.87485 17.7769 5.19383 18.0958 5.58732 18.0958H18.4118C18.8053 18.0958 19.1243 17.7769 19.1243 17.3834C19.1243 16.9899 18.8053 16.6709 18.4118 16.6709H5.58732C5.19383 16.6709 4.87485 16.9899 4.87485 17.3834Z" fill="currentColor"/></symbol>
  <symbol id="icon-minus" viewBox="0 0 24 24"><path d="M18.999 11C19.5513 11 19.999 11.4477 19.999 12C19.999 12.5523 19.5513 13 18.999 13H4.99902C4.44674 13 3.99902 12.5523 3.99902 12C3.99902 11.4477 4.44674 11 4.99902 11H18.999Z" fill="currentColor"/></symbol>
  <symbol id="icon-notification" viewBox="0 0 24 24"><path d="M11.9988 1.97266C16.0795 1.97266 19.3873 5.28066 19.3875 9.36133V17.8057H17.5876V9.36133C17.5875 6.27477 15.0854 3.77246 11.9988 3.77246C8.91229 3.77258 6.41003 6.27484 6.40991 9.36133V17.8057H4.61011V9.36133C4.61022 5.28073 7.91818 1.97277 11.9988 1.97266Z" fill="currentColor"/> <path d="M11.999 22.0283C9.37567 22.0283 7.24902 19.9017 7.24902 17.2783L7.24902 16.751L9.04883 16.751L9.04883 17.2783C9.04883 18.9076 10.3698 20.2285 11.999 20.2285C13.6283 20.2285 14.9492 18.9076 14.9492 17.2783L14.9492 16.751L16.749 16.751L16.749 17.2783C16.749 19.9017 14.6224 22.0283 11.999 22.0283Z" fill="currentColor"/> <path d="M20.5986 16.5342C21.0956 16.5342 21.4988 16.9367 21.499 17.4336C21.499 17.9306 21.0957 18.334 20.5986 18.334H3.39941C2.90236 18.334 2.49902 17.9306 2.49902 17.4336C2.49923 16.9367 2.90249 16.5342 3.39941 16.5342H20.5986Z" fill="currentColor"/></symbol>
  <symbol id="icon-play-solid" viewBox="0 0 24 24"><path d="M12 1C18.0751 1 23 5.92487 23 12C23 18.0751 18.0751 23 12 23C5.92487 23 1 18.0751 1 12C1 5.92487 5.92487 1 12 1ZM10.5303 7.9541C9.86423 7.53782 9 8.0173 9 8.80273V15.1943C9.00033 15.9795 9.86435 16.4582 10.5303 16.042L15.6436 12.8457C16.2697 12.454 16.2697 11.5421 15.6436 11.1504L10.5303 7.9541Z" fill="currentColor"/></symbol>
  <symbol id="icon-plus" viewBox="0 0 24 24"><path d="M11.0498 19V12.9502H5C4.47533 12.9502 4.0498 12.5247 4.0498 12C4.0498 11.4753 4.47533 11.0498 5 11.0498H11.0498V5C11.0498 4.47533 11.4753 4.0498 12 4.0498C12.5247 4.0498 12.9502 4.47533 12.9502 5V11.0498H19C19.5247 11.0498 19.9502 11.4753 19.9502 12C19.9502 12.5247 19.5247 12.9502 19 12.9502H12.9502V19C12.9502 19.5247 12.5247 19.9502 12 19.9502C11.4753 19.9502 11.0498 19.5247 11.0498 19Z" fill="currentColor"/></symbol>
  <symbol id="icon-refresh" viewBox="0 0 24 24"><path d="M12.0496 22C9.24346 22 6.86671 21.0314 4.91938 19.0943C2.97182 17.1572 1.99805 14.7931 1.99805 12.002C1.99805 9.21089 2.97182 6.84611 4.91938 4.90767C6.86671 2.96922 9.24346 2 12.0496 2C13.6166 2 15.0994 2.34656 16.4981 3.03967C17.8967 3.733 19.0599 4.71122 19.9877 5.97433V3C19.9877 2.71667 20.0841 2.47922 20.2769 2.28767C20.4696 2.09589 20.7084 2 20.9932 2C21.2782 2 21.5169 2.09589 21.7092 2.28767C21.9018 2.47922 21.998 2.71667 21.998 3V8.94867C21.998 9.29022 21.882 9.57644 21.6499 9.80733C21.4176 10.0382 21.1299 10.1537 20.7868 10.1537H14.8075C14.5227 10.1537 14.2839 10.0579 14.0911 9.86633C13.8986 9.67456 13.8023 9.43689 13.8023 9.15333C13.8023 8.87 13.8986 8.63255 14.0911 8.441C14.2839 8.24967 14.5227 8.154 14.8075 8.154H19.0961C18.3899 6.86667 17.4104 5.85255 16.1577 5.11167C14.9053 4.37055 13.5359 4 12.0496 4C9.81596 4 7.91732 4.77778 6.35374 6.33333C4.79016 7.88889 4.00837 9.77778 4.00837 12C4.00837 14.2222 4.79016 16.1111 6.35374 17.6667C7.91732 19.2222 9.81596 20 12.0496 20C13.6072 20 15.0331 19.5931 16.3273 18.7793C17.6215 17.9658 18.6019 16.8803 19.2687 15.523C19.3958 15.2803 19.5826 15.1107 19.8292 15.014C20.0758 14.9176 20.3271 14.912 20.5831 14.9973C20.8563 15.0829 21.0475 15.2607 21.1567 15.5307C21.2657 15.8009 21.2567 16.0573 21.1296 16.3C20.2995 18.0264 19.0744 19.408 17.4541 20.4447C15.8337 21.4816 14.0323 22 12.0496 22Z" fill="currentColor"/></symbol>
  <symbol id="icon-search" viewBox="0 0 24 24"><path fill-rule="evenodd" clip-rule="evenodd" d="M19.7373 18.5036L16.0294 14.8201C16.377 14.3597 16.7246 13.7842 16.9564 13.0935C17.304 12.2878 17.4199 11.482 17.4199 10.6763C17.4199 7.22302 14.7548 4.34532 11.2785 4C11.0468 4 10.9309 4 10.6992 4C7.45471 4 4.67374 6.30216 4.09438 9.52518C3.51501 12.8633 5.60073 16.3165 8.96107 17.2374C9.54044 17.3525 10.1198 17.4676 10.6992 17.4676C12.2055 17.4676 13.7119 17.0072 14.8706 16.0863L18.5786 19.7698C18.6945 19.8849 18.9262 20 19.158 20C19.3897 20 19.6215 19.8849 19.7373 19.7698C20.085 19.4245 20.085 18.8489 19.7373 18.5036ZM15.6817 10.7914C15.6817 11.3669 15.5659 11.9424 15.3341 12.518C14.6389 14.4748 12.669 15.741 10.5833 15.741C10.1198 15.741 9.65631 15.6259 9.30869 15.5108C6.87535 14.8201 5.25311 12.2878 5.71661 9.8705C6.1801 7.56835 8.26583 5.84173 10.5833 5.84173C10.6992 5.84173 10.9309 5.84173 11.0468 5.84173C13.7119 6.07194 15.6817 8.25899 15.6817 10.7914Z" fill="currentColor"/></symbol>
  <symbol id="icon-settings" viewBox="0 0 24 24"><path d="M9.89941 12C9.89941 10.8402 10.8392 9.90039 11.999 9.90039C13.1588 9.90039 14.0986 10.8402 14.0986 12C14.0986 13.1598 13.1588 14.0996 11.999 14.0996C10.8392 14.0996 9.89941 13.1598 9.89941 12ZM8.09863 12C8.09863 14.1539 9.84511 15.9004 11.999 15.9004C14.1529 15.9004 15.8994 14.1539 15.8994 12C15.8994 9.84609 14.1529 8.09961 11.999 8.09961C9.84511 8.09961 8.09863 9.84609 8.09863 12Z" fill="currentColor"/> <path d="M19.0985 12C19.0985 10.7878 19.6535 9.7055 20.5184 8.99219C20.5381 8.97595 20.5544 8.95828 20.5663 8.94238L20.5673 8.94043C20.1967 7.90237 19.6426 6.95186 18.9432 6.12598C18.9279 6.12644 18.909 6.12798 18.8885 6.13281C17.959 6.35207 16.9439 6.23353 16.0487 5.7168C15.0736 5.15374 14.4352 4.2318 14.201 3.21777C14.1961 3.1965 14.1892 3.17838 14.1825 3.16406C13.5735 3.01414 12.9399 2.92461 12.288 2.9043L11.9989 2.90039C11.2444 2.90039 10.5124 2.99104 9.81335 3.16309C9.80664 3.17743 9.79974 3.19631 9.7948 3.21777C9.56122 4.23117 8.92454 5.15344 7.94909 5.7168C7.05372 6.23374 6.03799 6.35308 5.10827 6.13379C5.08737 6.12886 5.06818 6.12637 5.05261 6.12598C4.3534 6.95183 3.79908 7.90246 3.42859 8.94043L3.43054 8.94238C3.44245 8.95829 3.45868 8.97594 3.47839 8.99219C4.34345 9.70526 4.89929 10.7873 4.89929 12C4.89929 13.2128 4.34317 14.2941 3.47839 15.0068C3.45871 15.0231 3.44243 15.0408 3.43054 15.0566L3.42859 15.0576C3.79893 16.0956 4.35337 17.046 5.05261 17.8721C5.0682 17.8717 5.08733 17.8711 5.10827 17.8662C6.03831 17.6472 7.0541 17.7665 7.94909 18.2832C8.92414 18.8464 9.56104 19.7681 9.7948 20.7812C9.79962 20.8022 9.80584 20.8208 9.81238 20.835C10.5121 21.0075 11.2443 21.0996 11.9989 21.0996L12.288 21.0957C12.9397 21.0753 13.5733 20.9852 14.1825 20.835C14.1892 20.8206 14.1961 20.8025 14.201 20.7812C14.4354 19.7675 15.0739 18.8461 16.0487 18.2832C16.9434 17.7667 17.9581 17.6474 18.8876 17.8662C18.9081 17.871 18.9269 17.8716 18.9423 17.8721C19.642 17.0458 20.1967 16.0957 20.5673 15.0576L20.5663 15.0566C20.5544 15.0407 20.5381 15.0231 20.5184 15.0068C19.6537 14.2939 19.0985 13.2124 19.0985 12ZM20.8993 12C20.8993 12.6511 21.1945 13.2318 21.663 13.6182C22.1263 14.0001 22.5834 14.7472 22.2899 15.5889C21.8374 16.8865 21.1469 18.0706 20.2714 19.0908C19.7604 19.6862 19.0044 19.7426 18.4755 19.6182C17.9727 19.4998 17.4297 19.5644 16.9491 19.8418C16.425 20.1444 16.0818 20.6376 15.955 21.1865C15.8325 21.7164 15.4466 22.3718 14.6835 22.5654C13.8241 22.7834 12.9245 22.9004 11.9989 22.9004C11.0729 22.9004 10.1725 22.7836 9.31238 22.5654C8.54939 22.3719 8.16327 21.7167 8.04089 21.1865C7.91421 20.6372 7.57204 20.1441 7.0487 19.8418C6.56779 19.5642 6.02454 19.4997 5.52136 19.6182C4.9924 19.7428 4.23569 19.6867 3.72449 19.0908C2.84912 18.0704 2.15923 16.8855 1.70691 15.5879C1.41376 14.7464 1.87036 14.0001 2.33386 13.6182C2.80292 13.2316 3.09851 12.6508 3.09851 12C3.09851 11.3488 2.80284 10.7675 2.33386 10.3809C1.87043 9.99885 1.41343 9.25188 1.70691 8.41016C2.15925 7.11293 2.8492 5.92853 3.72449 4.9082L3.82312 4.80273C4.32944 4.30611 5.02528 4.26478 5.52136 4.38184C6.02483 4.50063 6.56807 4.43563 7.0487 4.1582C7.572 3.856 7.91422 3.36307 8.04089 2.81348C8.16305 2.28319 8.54906 1.62717 9.31238 1.43359C10.1727 1.2157 11.0735 1.09961 11.9989 1.09961C12.9238 1.09965 13.823 1.21592 14.6825 1.43359C15.446 1.62698 15.8325 2.28255 15.955 2.8125C16.0818 3.3618 16.425 3.8556 16.9491 4.1582C17.4297 4.4355 17.9724 4.50048 18.4755 4.38184C18.9715 4.26481 19.6674 4.30611 20.1737 4.80273L20.2723 4.9082L20.5917 5.29883C21.3162 6.22678 21.8941 7.27512 22.2899 8.41016C22.5834 9.25187 22.1262 9.99887 21.663 10.3809C21.1946 10.7673 20.8993 11.3485 20.8993 12Z" fill="currentColor"/></symbol>
  <symbol id="icon-share" viewBox="0 0 24 24"><path d="M17.5 1.09961C19.3778 1.09961 20.9004 2.62223 20.9004 4.5C20.9004 6.37777 19.3778 7.90039 17.5 7.90039C16.586 7.90039 15.7566 7.53905 15.1455 6.95215L8.77637 10.5918C8.85638 10.881 8.90039 11.1853 8.90039 11.5C8.90039 12.0635 8.76223 12.5945 8.51953 13.0625L15.1514 17.042C15.7619 16.4585 16.5889 16.0996 17.5 16.0996C19.3778 16.0996 20.9004 17.6222 20.9004 19.5C20.9004 21.3778 19.3778 22.9004 17.5 22.9004C15.6222 22.9004 14.0996 21.3778 14.0996 19.5C14.0996 19.183 14.1434 18.8761 14.2246 18.585L7.2627 14.4072C6.74855 14.7197 6.1455 14.9004 5.5 14.9004C3.62223 14.9004 2.09961 13.3778 2.09961 11.5C2.09961 9.62223 3.62223 8.09961 5.5 8.09961C6.41329 8.09961 7.24159 8.46082 7.85254 9.04688L14.2227 5.40723C14.1428 5.11836 14.0996 4.81423 14.0996 4.5C14.0996 2.62223 15.6222 1.09961 17.5 1.09961ZM17.5 17.9004C16.6163 17.9004 15.9004 18.6163 15.9004 19.5C15.9004 20.3837 16.6163 21.0996 17.5 21.0996C18.3837 21.0996 19.0996 20.3837 19.0996 19.5C19.0996 18.6163 18.3837 17.9004 17.5 17.9004ZM5.5 9.90039C4.61634 9.90039 3.90039 10.6163 3.90039 11.5C3.90039 12.3837 4.61634 13.0996 5.5 13.0996C6.38366 13.0996 7.09961 12.3837 7.09961 11.5C7.09961 10.6163 6.38366 9.90039 5.5 9.90039ZM17.5 2.90039C16.6163 2.90039 15.9004 3.61634 15.9004 4.5C15.9004 5.38366 16.6163 6.09961 17.5 6.09961C18.3837 6.09961 19.0996 5.38366 19.0996 4.5C19.0996 3.61634 18.3837 2.90039 17.5 2.90039Z" fill="currentColor"/></symbol>
  <symbol id="icon-star-solid" viewBox="0 0 24 24"><path d="M22.0748 9.80153L22.0158 9.59753L21.9388 9.39953C21.5198 8.45353 20.5908 8.14153 20.0268 8.00853C19.3838 7.85653 18.5238 7.78353 17.6008 7.70053L17.3858 7.68053C16.7608 7.62453 16.4038 7.59153 16.1438 7.54053C16.0268 7.51753 15.9658 7.49753 15.9358 7.48553C15.9218 7.48053 15.9148 7.47653 15.9128 7.47553C15.9118 7.47553 15.9118 7.47353 15.9108 7.47353C15.9098 7.47353 15.9088 7.47353 15.9078 7.47153C15.9058 7.46953 15.9008 7.46353 15.8918 7.45253C15.8718 7.42753 15.8348 7.37453 15.7798 7.26853C15.6568 7.03353 15.5208 6.70253 15.2878 6.12053L15.2518 6.02853C14.8768 5.09453 14.5378 4.23853 14.1908 3.63453C13.8988 3.12453 13.3068 2.26153 12.2258 2.15553L12.0028 2.14453C10.7788 2.14453 10.1258 3.09053 9.81475 3.63353C9.46875 4.23753 9.12875 5.09353 8.75375 6.02753L8.71775 6.11953C8.48475 6.70153 8.34875 7.03253 8.22575 7.26753C8.17075 7.37253 8.13275 7.42553 8.11375 7.45153C8.10475 7.46253 8.09975 7.46853 8.09775 7.47053L8.09575 7.47253C8.09575 7.47253 8.09475 7.47353 8.09275 7.47453C8.09075 7.47553 8.08375 7.47853 8.07075 7.48453C8.04075 7.49653 7.97975 7.51653 7.86275 7.53953C7.60175 7.59053 7.24575 7.62353 6.62075 7.67953L6.40575 7.69953C5.48375 7.78253 4.62275 7.85553 3.97975 8.00753C3.41575 8.14053 2.48675 8.45253 2.06775 9.39853L1.99075 9.59653C1.62075 10.6985 2.22175 11.5875 2.61575 12.0645C3.03575 12.5735 3.67775 13.1525 4.36275 13.7755L4.84475 14.2135C5.22875 14.5635 5.44675 14.7635 5.59675 14.9255C5.68775 15.0235 5.71775 15.0715 5.72475 15.0845C5.73275 15.1045 5.73875 15.1255 5.74375 15.1465C5.74575 15.1585 5.74975 15.2115 5.73075 15.3515C5.70175 15.5705 5.63875 15.8585 5.52675 16.3665L5.45975 16.6675C5.27075 17.5185 5.10075 18.2775 5.03375 18.8675C4.97875 19.3555 4.90575 20.3085 5.56075 21.0385C5.88175 21.3955 6.29975 21.6535 6.76275 21.7795C7.70975 22.0375 8.52775 21.5465 8.93975 21.2775C9.43675 20.9535 10.0398 20.4595 10.7148 19.9085C11.1988 19.5135 11.4828 19.2845 11.7078 19.1345C11.8368 19.0485 11.9008 19.0205 11.9228 19.0125C11.9748 19.0045 12.0278 19.0045 12.0798 19.0125C12.1008 19.0205 12.1648 19.0475 12.2948 19.1345C12.5198 19.2855 12.8038 19.5145 13.2878 19.9085C13.9638 20.4595 14.5658 20.9535 15.0628 21.2775C15.4748 21.5465 16.2928 22.0375 17.2398 21.7795C17.7038 21.6525 18.1208 21.3955 18.4418 21.0385C19.0978 20.3085 19.0248 19.3565 18.9688 18.8675C18.9018 18.2775 18.7318 17.5185 18.5428 16.6675L18.4758 16.3665C18.3628 15.8595 18.3008 15.5705 18.2718 15.3515C18.2538 15.2185 18.2568 15.1625 18.2588 15.1475C18.2638 15.1265 18.2708 15.1055 18.2788 15.0855C18.2858 15.0715 18.3158 15.0245 18.4068 14.9265C18.5568 14.7645 18.7748 14.5645 19.1598 14.2145L19.6418 13.7765C20.3268 13.1535 20.9688 12.5745 21.3888 12.0655C21.7578 11.6185 22.3098 10.8085 22.0728 9.80153H22.0748Z" fill="currentColor"/></symbol>
  <symbol id="icon-star" viewBox="0 0 24 24"><path d="M12.2204 2.15918C13.3013 2.26515 13.8929 3.12807 14.1852 3.6377C14.5315 4.2414 14.8712 5.09735 15.2458 6.03125L15.2819 6.12305C15.5153 6.70503 15.6505 7.03637 15.7741 7.27148C15.8294 7.37674 15.8666 7.42983 15.8864 7.45508C15.8949 7.46598 15.9001 7.47172 15.902 7.47363C15.9033 7.47494 15.9044 7.4752 15.9049 7.47559C15.9054 7.47594 15.9054 7.47673 15.9069 7.47754C15.9087 7.47855 15.9156 7.48191 15.9294 7.4873C15.9591 7.49895 16.0204 7.51928 16.1374 7.54199C16.3981 7.59262 16.7547 7.62568 17.3796 7.68164L17.5944 7.70117C18.5167 7.78377 19.3776 7.85717 20.0202 8.00879C20.5841 8.14187 21.513 8.45359 21.9323 9.39941L22.0094 9.59766L22.068 9.80176C22.3057 10.8089 21.7534 11.6186 21.3844 12.0654C20.9641 12.5746 20.3223 13.1532 19.6374 13.7764L19.1559 14.2148C18.7713 14.5647 18.5529 14.7645 18.403 14.9268C18.3119 15.0253 18.2823 15.0724 18.2751 15.0859C18.2671 15.1063 18.2608 15.1272 18.2555 15.1484C18.2537 15.1638 18.2506 15.2196 18.2682 15.3525C18.2973 15.5714 18.3598 15.8601 18.4723 16.3672L18.5397 16.668C18.7285 17.5187 18.8989 18.2782 18.9655 18.8682C19.0206 19.3567 19.0938 20.3088 18.4381 21.0391C18.1171 21.3965 17.6995 21.6538 17.236 21.7803C16.289 22.0387 15.4712 21.5469 15.0592 21.2783C14.5618 20.954 13.9596 20.4598 13.2838 19.9092C12.7994 19.5145 12.5157 19.2853 12.2907 19.1348C12.1611 19.0481 12.0972 19.0203 12.0758 19.0127C12.0237 19.0044 11.9707 19.0044 11.9186 19.0127C11.8971 19.0204 11.833 19.0484 11.7038 19.1348C11.4787 19.2853 11.195 19.5145 10.7106 19.9092C10.0349 20.4598 9.43265 20.954 8.93521 21.2783C8.52326 21.5469 7.70536 22.0386 6.75846 21.7803C6.29502 21.6538 5.87731 21.3965 5.55631 21.0391C4.90073 20.3088 4.97383 19.3567 5.02896 18.8682C5.09559 18.2782 5.266 17.5187 5.45475 16.668L5.52213 16.3672C5.63465 15.86 5.69718 15.5714 5.72623 15.3525C5.75164 15.161 5.73437 15.1299 5.73893 15.1484C5.7337 15.1272 5.72734 15.1063 5.71939 15.0859C5.71205 15.0723 5.68238 15.0251 5.59146 14.9268C5.44153 14.7646 5.22402 14.5647 4.83951 14.2148L4.35709 13.7764C3.67207 13.1531 3.03039 12.5746 2.61002 12.0654C2.21648 11.5888 1.61458 10.6993 1.98502 9.59766L2.06217 9.39941C2.48146 8.45354 3.41033 8.14187 3.97428 8.00879C4.61689 7.85714 5.47764 7.78378 6.40006 7.70117L6.6149 7.68164C7.23984 7.62567 7.59631 7.59263 7.85709 7.54199C7.97412 7.51927 8.03532 7.49896 8.0651 7.4873C8.07897 7.48187 8.08571 7.47855 8.08756 7.47754C8.08918 7.47665 8.08998 7.47597 8.09049 7.47559C8.09085 7.4753 8.09153 7.47453 8.09244 7.47363C8.09427 7.4718 8.09937 7.46616 8.10807 7.45508C8.12782 7.42987 8.16498 7.37687 8.22037 7.27148C8.34391 7.03638 8.4791 6.70505 8.71256 6.12305L8.74869 6.03125C9.12329 5.09737 9.463 4.24141 9.80924 3.6377C10.1211 3.09405 10.7741 2.14844 11.9977 2.14844L12.2204 2.15918ZM11.9977 3.64844C11.3214 3.64844 10.9278 4.62894 10.1413 6.58984L10.1042 6.68164L9.80533 7.41309C9.53409 8.05218 9.32468 8.42714 8.98502 8.67969C8.53217 9.01638 7.93761 9.0693 6.74869 9.17578L6.53385 9.19531C4.58804 9.36958 3.61507 9.45719 3.40689 10.0762C3.19914 10.695 3.92123 11.3527 5.36588 12.667L5.8483 13.1055C6.57975 13.7709 6.94539 14.104 7.11588 14.54C7.14764 14.6213 7.17507 14.7044 7.19596 14.7891C7.30801 15.2437 7.2002 15.7269 6.986 16.6924L6.91959 16.9932L6.66666 18.1631C6.46131 19.1791 6.41481 19.7501 6.67252 20.0371C6.80094 20.1801 6.96855 20.2834 7.15396 20.334C7.52605 20.4351 8.0153 20.1372 8.83072 19.498L9.76334 18.7471C10.5728 18.0875 11.0281 17.7164 11.485 17.5771L11.6823 17.5312C11.8911 17.4979 12.1043 17.4979 12.3131 17.5312C12.844 17.6162 13.3063 17.9935 14.2311 18.7471C15.5522 19.8236 16.2543 20.3951 16.7458 20.3506L16.8415 20.334C16.9804 20.2961 17.1087 20.2282 17.2184 20.1367L17.3219 20.0371C17.5797 19.7501 17.5332 19.1792 17.3278 18.1631L17.0749 16.9932L17.0085 16.6924C16.821 15.8474 16.7155 15.3722 16.7672 14.9619L16.7995 14.7891C16.8099 14.7467 16.8214 14.7046 16.8346 14.6631L16.8786 14.54C17.0065 14.2129 17.2441 13.9438 17.6637 13.5488L18.1462 13.1055L18.6286 12.667C20.0733 11.3526 20.7954 10.6951 20.5876 10.0762C20.3794 9.45719 19.4064 9.36958 17.4606 9.19531L17.2458 9.17578C16.0569 9.06931 15.4623 9.01637 15.0094 8.67969C14.6698 8.42713 14.4603 8.05214 14.1891 7.41309L13.8903 6.68164L13.8532 6.58984C13.0668 4.62936 12.6738 3.64882 11.9977 3.64844Z" fill="currentColor"/></symbol>
  <symbol id="icon-type-jpeg" viewBox="0 0 24 24"><path d="M19.9959 6.42355L14.9827 1.5H4.80885C4.3623 1.5 4 1.85552 4 2.29372V16.3781H19.9959V6.42355Z" fill="currentColor"/> <path fill-rule="evenodd" clip-rule="evenodd" d="M15.7285 6.75H8.29688V14.1876H15.7285V6.75Z" fill="currentColor"/> <path fill-rule="evenodd" clip-rule="evenodd" d="M9.89642 10.5339L11.3715 13.029C12.1745 11.6715 12.968 7.61813 13.771 8.96607L15.7129 12.2451V14.1858H8.28125V13.2489C8.82275 12.3407 9.35492 9.61615 9.89642 10.5243V10.5339Z" fill="currentColor"/> <path d="M10.6213 9.61716C11.1112 9.61716 11.5083 9.21055 11.5083 8.70897C11.5083 8.20739 11.1112 7.80078 10.6213 7.80078C10.1315 7.80078 9.73438 8.20739 9.73438 8.70897C9.73438 9.21055 10.1315 9.61716 10.6213 9.61716Z" fill="white"/> <path d="M14.9844 5.62983C14.9844 6.06803 15.3467 6.42355 15.7932 6.42355H20.0018L14.9844 1.5V5.62983Z" fill="currentColor"/> <path d="M4 16.375V21.7078C4 22.146 4.3623 22.5015 4.80885 22.5015H19.1871C19.6336 22.5015 19.9959 22.146 19.9959 21.7078V16.375H4Z" fill="currentColor"/> <path d="M17.8546 18.7473C17.7937 18.5474 17.6857 18.3919 17.5307 18.2808C17.3774 18.168 17.1876 18.1116 16.9612 18.1116C16.7557 18.1116 16.5737 18.1628 16.4152 18.2654C16.2567 18.3662 16.1331 18.5149 16.0442 18.7114C15.9554 18.908 15.911 19.1421 15.911 19.4138C15.911 19.6907 15.9554 19.9283 16.0442 20.1265C16.1331 20.323 16.2576 20.4726 16.4178 20.5751C16.578 20.6759 16.7644 20.7264 16.9769 20.7264C17.1649 20.7264 17.3295 20.6913 17.4706 20.6213C17.6117 20.5495 17.7214 20.4486 17.7998 20.3188C17.8781 20.1872 17.9191 20.0342 17.9225 19.8599H17.0448V19.3318H18.5809V19.7779C18.5809 20.0906 18.5121 20.364 18.3745 20.5982C18.2386 20.8306 18.0497 21.0101 17.8076 21.1365C17.5655 21.263 17.2886 21.3262 16.9769 21.3262C16.6303 21.3262 16.3246 21.2493 16.0599 21.0955C15.7952 20.94 15.5897 20.7187 15.4434 20.4316C15.2988 20.1444 15.2266 19.8069 15.2266 19.419C15.2266 19.031 15.3006 18.6935 15.4486 18.4064C15.5984 18.1176 15.8039 17.8962 16.0651 17.7424C16.3281 17.5886 16.6251 17.5117 16.956 17.5117C17.2311 17.5117 17.4828 17.5638 17.7109 17.6681C17.9391 17.7723 18.1263 17.9185 18.2726 18.1065C18.4189 18.2927 18.5112 18.5064 18.5495 18.7473H17.8546Z" fill="white"/> <path d="M12.0469 17.5625H14.5077V18.1213H12.7261V19.1365H14.3771V19.6953H12.7261V20.7105H14.5182V21.2745H12.0469V17.5625Z" fill="white"/> <path d="M8.58594 17.5625H10.0071C10.2892 17.5625 10.5304 17.6146 10.7307 17.7189C10.931 17.8231 11.0825 17.9684 11.1853 18.1547C11.288 18.3392 11.3394 18.552 11.3394 18.793C11.3394 19.0322 11.2871 19.245 11.1826 19.4313C11.0799 19.6159 10.9275 19.7603 10.7255 19.8645C10.5235 19.9671 10.2805 20.0183 9.99662 20.0183H9.26516V21.2745H8.58594V17.5625ZM9.90258 19.4697C10.1499 19.4697 10.3354 19.4091 10.459 19.2877C10.5827 19.1647 10.6445 18.9998 10.6445 18.793C10.6445 18.5845 10.5827 18.4204 10.459 18.3008C10.3354 18.1812 10.1499 18.1213 9.90258 18.1213H9.26516V19.4697H9.90258Z" fill="white"/> <path d="M7.72365 17.5625V20.1722C7.72365 20.408 7.67315 20.6131 7.57214 20.7874C7.47112 20.96 7.32831 21.0933 7.14371 21.1873C6.96084 21.2796 6.74837 21.3257 6.50628 21.3257C6.28162 21.3257 6.08047 21.2864 5.90282 21.2078C5.72692 21.1275 5.58847 21.0096 5.48746 20.854C5.38644 20.6985 5.33594 20.5105 5.33594 20.2901H6.01516C6.01516 20.4405 6.06218 20.5592 6.15623 20.6464C6.25201 20.7336 6.37741 20.7771 6.53241 20.7771C6.69786 20.7771 6.825 20.7259 6.91382 20.6233C7.00264 20.5191 7.04792 20.3687 7.04966 20.1722V17.5625H7.72365Z" fill="white"/></symbol>
  <symbol id="icon-type-jpg" viewBox="0 0 24 24"><path d="M19.996 6.42355L14.9828 1.5H4.80886C4.3623 1.5 4 1.85552 4 2.29372V16.3781H19.996V6.42355Z" fill="currentColor"/> <path d="M14.9844 5.62982C14.9844 6.06802 15.3467 6.42354 15.7932 6.42354H20.0018L14.9844 1.5V5.62982Z" fill="currentColor"/> <path d="M4 16.375V21.7078C4 22.146 4.3623 22.5015 4.80886 22.5015H19.1872C19.6337 22.5015 19.996 22.146 19.996 21.7078V16.375H4Z" fill="currentColor"/> <path d="M16.2765 18.7473C16.2156 18.5474 16.1076 18.3919 15.9526 18.2808C15.7993 18.168 15.6095 18.1116 15.3831 18.1116C15.1776 18.1116 14.9956 18.1628 14.8371 18.2654C14.6786 18.3662 14.5549 18.5149 14.4661 18.7114C14.3773 18.908 14.3329 19.1421 14.3329 19.4138C14.3329 19.6907 14.3773 19.9283 14.4661 20.1265C14.5549 20.323 14.6795 20.4726 14.8397 20.5751C14.9999 20.6759 15.1863 20.7264 15.3987 20.7264C15.5868 20.7264 15.7514 20.6913 15.8925 20.6213C16.0336 20.5495 16.1433 20.4486 16.2217 20.3188C16.3 20.1872 16.341 20.0342 16.3444 19.8599H15.4667V19.3318H17.0028V19.7779C17.0028 20.0906 16.934 20.364 16.7964 20.5982C16.6605 20.8306 16.4716 21.0101 16.2295 21.1365C15.9874 21.263 15.7105 21.3262 15.3987 21.3262C15.0522 21.3262 14.7465 21.2493 14.4818 21.0955C14.2171 20.94 14.0116 20.7187 13.8653 20.4316C13.7207 20.1444 13.6484 19.8069 13.6484 19.419C13.6484 19.031 13.7225 18.6935 13.8705 18.4064C14.0203 18.1176 14.2258 17.8962 14.487 17.7424C14.75 17.5886 15.0469 17.5117 15.3778 17.5117C15.653 17.5117 15.9047 17.5638 16.1328 17.6681C16.361 17.7723 16.5482 17.9185 16.6945 18.1065C16.8408 18.2927 16.9331 18.5064 16.9714 18.7473H16.2765Z" fill="white"/> <path d="M10.2812 17.5625H11.7024C11.9845 17.5625 12.2257 17.6146 12.426 17.7189C12.6263 17.8231 12.7778 17.9684 12.8806 18.1547C12.9833 18.3392 13.0347 18.552 13.0347 18.793C13.0347 19.0322 12.9825 19.245 12.878 19.4313C12.7752 19.6159 12.6228 19.7603 12.4208 19.8645C12.2188 19.9671 11.9758 20.0183 11.6919 20.0183H10.9605V21.2745H10.2812V17.5625ZM11.5979 19.4697C11.8452 19.4697 12.0307 19.4091 12.1543 19.2877C12.278 19.1647 12.3398 18.9998 12.3398 18.793C12.3398 18.5845 12.278 18.4204 12.1543 18.3008C12.0307 18.1812 11.8452 18.1213 11.5979 18.1213H10.9605V19.4697H11.5979Z" fill="white"/> <path d="M9.41899 17.5625V20.1722C9.41899 20.408 9.36848 20.6131 9.26747 20.7874C9.16645 20.96 9.02364 21.0933 8.83903 21.1873C8.65617 21.2796 8.44369 21.3257 8.20161 21.3257C7.97694 21.3257 7.77578 21.2864 7.59814 21.2078C7.42224 21.1275 7.28378 21.0096 7.18277 20.854C7.08176 20.6985 7.03125 20.5105 7.03125 20.2901H7.71047C7.71047 20.4405 7.7575 20.5592 7.85154 20.6464C7.94733 20.7336 8.07273 20.7771 8.22773 20.7771C8.39318 20.7771 8.52032 20.7259 8.60914 20.6233C8.69796 20.5191 8.74325 20.3687 8.74499 20.1722V17.5625H9.41899Z" fill="white"/> <path fill-rule="evenodd" clip-rule="evenodd" d="M15.7286 6.75H8.29688V14.1876H15.7286V6.75Z" fill="currentColor"/> <path fill-rule="evenodd" clip-rule="evenodd" d="M9.89643 10.5339L11.3716 13.029C12.1745 11.6715 12.9681 7.61813 13.771 8.96607L15.7129 12.2451V14.1858H8.28125V13.2489C8.82276 12.3407 9.35492 9.61615 9.89643 10.5243V10.5339Z" fill="currentColor"/> <path d="M10.6213 9.61716C11.1112 9.61716 11.5083 9.21055 11.5083 8.70897C11.5083 8.20739 11.1112 7.80078 10.6213 7.80078C10.1315 7.80078 9.73438 8.20739 9.73438 8.70897C9.73438 9.21055 10.1315 9.61716 10.6213 9.61716Z" fill="white"/></symbol>
  <symbol id="icon-type-pdf" viewBox="0 0 24 24"><path d="M19.9951 6.42365L14.9822 1.5H4.80881C4.36228 1.5 4 1.85553 4 2.29374V16.3784H19.9951V6.42365Z" fill="currentColor"/> <path d="M14.9844 5.62982C14.9844 6.06802 15.3466 6.42354 15.7932 6.42354H20.0014L14.9844 1.5V5.62982Z" fill="currentColor"/> <path d="M4.00781 16.375V21.7079C4.00781 22.1461 4.37009 22.5017 4.81663 22.5017H19.1941C19.6406 22.5017 20.0029 22.1461 20.0029 21.7079V16.375H4.00781Z" fill="currentColor"/> <path d="M9.06673 13.8862C8.88297 13.8862 8.70524 13.8168 8.54257 13.6809C8.26845 13.4515 8.24736 13.198 8.27447 13.026C8.40702 12.2502 9.84694 11.5409 10.6844 11.1908C11.1393 10.0499 11.5339 8.70671 11.7779 7.69858C11.2899 6.65122 11.1182 5.91172 11.2688 5.49217C11.3441 5.28391 11.4977 5.14808 11.7146 5.09979L11.7447 5.09375L11.7749 5.09677C11.799 5.09979 12.0128 5.13299 12.1876 5.36842C12.4135 5.67629 12.4647 6.17432 12.3382 6.85043C12.302 7.0436 12.2418 7.32129 12.1635 7.65331C12.6093 8.58296 13.2359 9.60919 13.748 10.3215C14.1757 10.2612 14.5824 10.24 14.9258 10.2762C15.5675 10.3427 15.703 10.6234 15.7271 10.7863C15.7633 11.0248 15.5885 11.2723 15.2903 11.3991C14.8776 11.5741 14.2028 11.5289 13.6546 10.8165C13.6305 10.7863 13.6064 10.7531 13.5823 10.7199C12.8774 10.8377 12.058 11.061 11.2266 11.3719C11.1393 11.4051 11.0549 11.4383 10.9706 11.4715C10.4072 12.8539 9.85597 13.6477 9.32881 13.8379C9.24446 13.8711 9.15409 13.8862 9.06673 13.8862ZM10.4826 11.6798C9.28663 12.2201 8.69319 12.7543 8.63897 13.0893C8.62692 13.1618 8.62692 13.2735 8.78055 13.4002C8.92213 13.5179 9.05769 13.5481 9.20831 13.4938C9.62703 13.3429 10.0729 12.6185 10.4826 11.6798ZM14.007 10.6626C14.4137 11.1425 14.8716 11.1818 15.1487 11.061C15.2933 11.0006 15.3747 10.898 15.3656 10.8407C15.3566 10.7803 15.221 10.6777 14.8897 10.6445C14.6427 10.6203 14.3444 10.6264 14.007 10.6626ZM12.0309 8.20566C11.8472 8.91497 11.5971 9.76917 11.3049 10.5962C11.2537 10.7381 11.2055 10.8739 11.1543 11.0067C11.808 10.7652 12.5972 10.5298 13.3473 10.3879C12.9437 9.81142 12.4466 9.01156 12.0309 8.20566ZM11.7598 5.47406C11.6905 5.49821 11.6453 5.54348 11.6182 5.62196C11.5128 5.91172 11.6514 6.45804 11.9195 7.10397C11.9436 6.98927 11.9646 6.88363 11.9827 6.78704C12.1213 6.03547 11.9887 5.71251 11.8954 5.58876C11.8441 5.51934 11.7899 5.48613 11.7598 5.47406Z" fill="currentColor"/> <path d="M7.74219 17.6546H9.04908C9.30863 17.6546 9.53045 17.7028 9.71339 17.7982C9.89748 17.8936 10.037 18.0271 10.1319 18.1966C10.2256 18.3671 10.2725 18.5635 10.2725 18.7845C10.2725 19.0033 10.2256 19.1997 10.1307 19.3691C10.0347 19.5397 9.89405 19.6732 9.70882 19.7663C9.52359 19.8617 9.30063 19.9088 9.03879 19.9088H8.36648V21.0635H7.74219V17.6523V17.6546ZM8.95304 19.4073C9.17943 19.4073 9.35094 19.3512 9.46413 19.2401C9.57847 19.1268 9.6345 18.9764 9.6345 18.7868C9.6345 18.5949 9.57733 18.4434 9.46413 18.3346C9.35094 18.2257 9.17943 18.1707 8.95304 18.1707H8.36648V19.4095H8.95304V19.4073Z" fill="white"/> <path d="M11.0391 21.0674V17.6562H12.2396C12.5838 17.6562 12.8811 17.7247 13.1303 17.8605C13.3796 17.9962 13.5717 18.1926 13.7043 18.4473C13.8381 18.7043 13.9055 19.0061 13.9055 19.3573C13.9055 19.7108 13.8381 20.016 13.7032 20.2718C13.5694 20.5288 13.3762 20.7251 13.1223 20.862C12.8696 20.9989 12.5689 21.0674 12.2202 21.0674H11.0391ZM12.187 20.5344C12.5495 20.5344 12.8239 20.4368 13.0068 20.2393C13.1898 20.0429 13.2813 19.7478 13.2813 19.3562C13.2813 18.9668 13.1909 18.6751 13.0103 18.4799C12.8296 18.2857 12.5609 18.1881 12.2065 18.1881H11.6634V20.5344H12.187Z" fill="white"/> <path d="M14.6641 17.6562H16.8925V18.1702H15.2884V19.1026H16.7393V19.6165H15.2884V21.0674H14.6641V17.6562Z" fill="white"/></symbol>
  <symbol id="icon-type-txt" viewBox="0 0 24 24"><path d="M19.9951 6.42365L14.9822 1.5H4.80881C4.36228 1.5 4 1.85553 4 2.29374V16.3784H19.9951V6.42365Z" fill="currentColor"/> <path d="M14.9844 5.62982C14.9844 6.06802 15.3466 6.42354 15.7932 6.42354H20.0014L14.9844 1.5V5.62982Z" fill="currentColor"/> <path d="M4.00781 16.375V21.7079C4.00781 22.1461 4.37009 22.5017 4.81663 22.5017H19.1941C19.6406 22.5017 20.0029 22.1461 20.0029 21.7079V16.375H4.00781Z" fill="currentColor"/> <path d="M14.0859 17.5117H17.1004V18.0706H15.9354V21.2237H15.2562V18.0706H14.0859V17.5117Z" fill="white"/> <path d="M11.9581 18.8755H11.9895L12.8306 17.5117H13.6038L12.4388 19.3677L13.6247 21.2237H12.8358L11.9895 19.8701H11.9581L11.1118 21.2237H10.3281L11.5245 19.3677L10.3438 17.5117H11.1275L11.9581 18.8755Z" fill="white"/> <path d="M6.85156 17.5117H9.86604V18.0706H8.701V21.2237H8.02183V18.0706H6.85156V17.5117Z" fill="white"/> <path fill-rule="evenodd" clip-rule="evenodd" d="M7.57031 12.1562H15.5109V13.1013H7.57031V12.1562Z" fill="currentColor"/> <path fill-rule="evenodd" clip-rule="evenodd" d="M7.57031 10.3594H16.2537V11.2939H7.57031V10.3594Z" fill="currentColor"/> <path fill-rule="evenodd" clip-rule="evenodd" d="M7.57031 8.55469H13.6432V9.4892H7.57031V8.55469Z" fill="currentColor"/> <path fill-rule="evenodd" clip-rule="evenodd" d="M7.57031 6.75H16.2537V7.68451H7.57031V6.75Z" fill="currentColor"/></symbol>
  <symbol id="icon-user" viewBox="0 0 24 24"><path d="M11.9969 14.0996C13.9006 14.0996 15.7701 14.5702 17.3163 15.46C18.8617 16.3495 20.0313 17.6307 20.5721 19.1445C20.7391 19.6125 20.4952 20.1277 20.0272 20.2949C19.5592 20.4621 19.0441 20.218 18.8768 19.75C18.5061 18.7123 17.6665 17.7381 16.4178 17.0195C15.1697 16.3014 13.6153 15.9004 11.9969 15.9004C10.3786 15.9004 8.82413 16.3014 7.57603 17.0195C6.32735 17.7381 5.48777 18.7123 5.11705 19.75C4.94978 20.218 4.43469 20.4621 3.96666 20.2949C3.49868 20.1277 3.25472 19.6125 3.42174 19.1445C3.96258 17.6307 5.13213 16.3495 6.6776 15.46C8.22374 14.5702 10.0933 14.0996 11.9969 14.0996Z" fill="currentColor"/> <path d="M15.0957 8C15.0957 6.28792 13.7082 4.90039 11.9961 4.90039C10.284 4.90039 8.89648 6.28792 8.89648 8C8.89648 9.71208 10.284 11.0996 11.9961 11.0996C13.7082 11.0996 15.0957 9.71208 15.0957 8ZM16.8965 8C16.8965 10.7062 14.7023 12.9004 11.9961 12.9004C9.2899 12.9004 7.0957 10.7062 7.0957 8C7.0957 5.2938 9.2899 3.09961 11.9961 3.09961C14.7023 3.09961 16.8965 5.2938 16.8965 8Z" fill="currentColor"/></symbol>
</svg>